<?xml version="1.0" standalone="no"?>
<!DOCTYPE svg PUBLIC "-//W3C//DTD SVG 20010904//EN"
 "http://www.w3.org/TR/2001/REC-SVG-20010904/DTD/svg10.dtd">
<svg version="1.0" xmlns="http://www.w3.org/2000/svg"
 width="535.000000pt" height="535.000000pt" viewBox="0 0 535.000000 535.000000"
 preserveAspectRatio="xMidYMid meet">
<metadata>
Created by potrace 1.11, written by Peter Selinger 2001-2013
</metadata>
<g transform="translate(0.000000,535.000000) scale(0.100000,-0.100000)"
fill="#000000" stroke="none">
<path d="M2537 3834 c-2 -2 -25 -7 -51 -10 -79 -9 -215 -52 -311 -99 -315
-152 -551 -450 -625 -789 -23 -104 -32 -226 -17 -227 7 0 96 -1 199 -2 154 0
186 -3 177 -13 -8 -10 -59 -14 -198 -16 l-186 -3 3 -64 c4 -96 5 -96 111 -94
87 1 90 0 81 -18 -12 -21 -9 -21 -103 -21 l-69 -1 4 -29 5 -28 -156 -49 c-315
-100 -450 -140 -604 -181 -175 -46 -181 -47 -252 -57 l-50 -6 30 39 c41 54 44
57 131 164 75 92 382 448 413 481 9 9 25 27 36 40 42 51 130 154 136 159 3 3
50 59 104 125 55 66 102 122 105 125 44 40 196 257 187 266 -3 4 -33 -20 -67
-51 -33 -32 -63 -55 -67 -52 -3 4 -1 7 5 7 10 0 82 107 82 123 0 33 -333 -298
-641 -637 -30 -33 -66 -73 -82 -88 -35 -37 -259 -297 -312 -362 -22 -28 -50
-61 -62 -74 -29 -32 -136 -189 -155 -227 -13 -27 -15 -40 -10 -86 1 -9 25 -30
52 -48 58 -37 107 -42 220 -21 179 32 547 157 854 289 89 39 121 49 127 39 5
-7 26 -12 54 -11 34 1 51 -3 66 -18 10 -10 26 -19 35 -19 8 0 13 -4 10 -9 -4
-5 -33 -8 -66 -7 -34 2 -63 -1 -67 -7 -3 -5 7 -36 23 -68 l28 -59 45 -1 c59 0
1942 0 1959 0 13 1 74 119 68 130 -2 3 -68 6 -145 6 -78 0 -141 2 -141 6 0 3
19 10 43 16 23 5 41 14 40 19 -1 7 35 10 100 9 56 0 109 3 118 7 9 4 21 27 28
52 8 33 19 49 43 64 18 11 52 34 76 52 41 31 55 32 29 1 -36 -43 -99 -153
-103 -179 -4 -26 0 -33 40 -56 24 -14 49 -26 54 -26 5 0 25 15 44 33 83 77
136 124 173 152 22 17 57 45 77 64 43 38 46 36 18 -12 -12 -19 -23 -46 -25
-58 -3 -13 -7 -36 -10 -51 -8 -33 9 -65 38 -79 12 -5 33 -16 47 -24 52 -30
161 11 290 109 30 23 84 59 120 81 36 21 97 61 135 88 100 69 10 -13 -122
-111 -35 -26 -58 -49 -52 -51 10 -3 195 105 205 120 10 17 24 9 24 -13 -1 -33
-33 -99 -61 -125 -31 -27 -85 -41 -126 -32 -18 3 -33 5 -33 3 0 -2 29 -19 64
-39 56 -31 71 -35 108 -30 24 3 60 17 80 31 38 24 88 91 88 117 0 8 3 17 7 21
5 4 8 11 9 14 7 66 63 199 101 239 18 20 33 44 33 54 0 19 -25 49 -41 49 -6 0
-17 7 -25 15 -35 35 -94 6 -141 -68 -46 -74 -123 -145 -242 -225 -64 -43 -134
-89 -156 -101 l-40 -23 35 28 c83 68 191 166 187 171 -3 2 -33 -16 -68 -40
-153 -107 -320 -200 -319 -179 1 18 31 43 56 48 28 5 150 63 188 90 46 32 115
107 134 145 28 55 18 84 -40 117 -44 25 -49 26 -94 14 -72 -19 -152 -72 -246
-164 -70 -68 -253 -199 -302 -217 -16 -6 40 47 117 108 78 64 88 83 18 41 -56
-35 -61 -36 -54 -12 2 10 -5 41 -15 68 -20 50 -20 50 0 97 19 44 19 48 4 72
-9 14 -22 25 -28 25 -6 0 -19 7 -28 15 -20 18 -54 10 -69 -18 -6 -12 -13 -42
-15 -65 -4 -45 -19 -66 -100 -141 -21 -20 -42 -37 -46 -39 -5 -2 -6 26 -3 62
l5 66 -452 0 c-379 0 -451 2 -441 14 9 10 90 13 429 14 229 0 428 1 441 1 23
1 23 2 17 74 -10 103 -15 135 -32 197 -31 113 -89 247 -134 310 -11 15 -20 31
-20 35 0 15 -114 146 -180 208 -218 202 -489 307 -792 305 -64 0 -119 -2 -121
-4z m-134 -1142 c-7 -18 -250 -15 -257 3 -3 10 26 13 129 12 106 -1 132 -4
128 -15z m175 1 c-13 -17 -88 -17 -88 -1 0 9 -3 9 -12 0 -14 -14 -48 -16 -48
-4 0 17 11 19 85 19 60 -1 72 -3 63 -14z m220 0 c-12 -14 -58 -18 -58 -5 0 15
10 20 40 18 22 0 26 -4 18 -13z m82 2 c-7 -8 -20 -15 -29 -15 -13 1 -13 3 3
15 26 19 42 19 26 0z m1744 -92 c-15 -21 -42 -50 -59 -65 -32 -30 -135 -88
-154 -88 -22 0 -3 16 63 50 36 18 90 57 118 86 29 29 55 53 57 54 2 0 -9 -17
-25 -37z m-655 10 c-41 -51 -165 -147 -179 -138 -7 4 17 27 57 55 37 27 82 60
98 74 35 30 43 32 24 9z m589 -1 c-7 -10 -31 -34 -53 -52 -35 -30 -34 -27 10
18 51 54 65 65 43 34z m-2562 -111 c-15 -17 -106 -35 -106 -22 0 20 37 39 77
39 44 1 45 1 29 -17z m279 -4 c-11 -16 -26 -20 -70 -21 -54 -1 -67 8 -44 31 6
6 37 11 70 11 56 -1 58 -1 44 -21z m165 -2 c-7 -8 -17 -15 -23 -15 -5 0 -2 9
8 20 21 23 35 19 15 -5z m1309 1 c-24 -21 -31 -21 -489 -19 -256 0 -478 2
-495 2 l-30 2 22 18 c20 17 52 18 519 18 l497 0 -24 -21z m-2184 -115 c-2 -5
-24 -14 -49 -20 -24 -6 -52 -13 -62 -16 -11 -3 8 8 41 23 56 27 82 32 70 13z
m615 -64 c0 -6 7 -18 14 -26 14 -15 1 -16 -145 -16 -87 0 -159 1 -159 2 0 2
21 13 47 27 40 20 61 23 145 23 60 0 98 -4 98 -10z m250 -7 c6 -11 17 -20 25
-20 7 0 16 -4 19 -8 2 -4 -29 -7 -70 -7 -41 0 -75 2 -76 5 -4 10 17 37 32 43
31 12 60 6 70 -13z m545 1 c-38 -10 -69 -22 -68 -27 1 -7 -286 -12 -341 -5 -5
0 0 11 12 24 21 22 26 23 244 23 l223 1 -70 -16z"/>
<path d="M1715 2070 c-2 -3 15 -31 38 -63 l42 -57 60 0 c68 -1 1663 -1 1682 0
16 0 98 108 89 117 -7 8 -1906 10 -1911 3z"/>
<path d="M1891 1853 c8 -9 36 -34 62 -55 l49 -38 670 0 670 0 64 52 c35 28 64
53 64 55 0 2 -358 3 -796 3 -742 0 -796 -1 -783 -17z"/>
<path d="M2187 1655 c18 -8 47 -21 65 -29 100 -46 302 -83 433 -80 155 3 316
37 436 92 l64 29 -515 1 c-444 0 -511 -1 -483 -13z"/>
</g>
</svg>
