<svg xmlns="http://www.w3.org/2000/svg" xmlns:xlink="http://www.w3.org/1999/xlink" width="217" height="202" viewBox="0 0 217 202">
  <defs>
    <path id="facebook-b" d="M36.75,64.5 C21.4240982,64.5 9,52.0759018 9,36.75 C9,21.4240982 21.4240982,9 36.75,9 C52.0759018,9 64.5,21.4240982 64.5,36.75 C64.5,52.0759018 52.0759018,64.5 36.75,64.5 Z M32.7192788,53.0084167 L40.0867619,53.0084167 L40.0867619,37.170875 L45.0025034,37.170875 L45.6546667,31.7138587 L40.0892136,31.7138587 L40.0965688,28.9809954 C40.0965688,27.5590355 40.2485768,26.7947048 42.5483103,26.7947048 L45.6203423,26.7947048 L45.6203423,21.3333333 L40.7046007,21.3333333 C34.7983556,21.3333333 32.7217306,23.981271 32.7217306,28.4344228 L32.7217306,31.7116811 L29.0416667,31.7116811 L29.0416667,37.170875 L32.7217306,37.170875 L32.7217306,53.0084167 L32.7192788,53.0084167 Z"/>
    <filter id="facebook-a" width="620.7%" height="616.9%" x="-215.3%" y="-253.2%" filterUnits="objectBoundingBox">
      <feMorphology in="SourceAlpha" radius="3" result="shadowSpreadOuter1"/>
      <feOffset dx="25" dy="4" in="shadowSpreadOuter1" result="shadowOffsetOuter1"/>
      <feGaussianBlur in="shadowOffsetOuter1" result="shadowBlurOuter1" stdDeviation="47"/>
      <feComposite in="shadowBlurOuter1" in2="SourceAlpha" operator="out" result="shadowBlurOuter1"/>
      <feColorMatrix in="shadowBlurOuter1" values="0 0 0 0 0.125490196   0 0 0 0 0   0 0 0 0 0.321568627  0 0 0 0.5 0"/>
    </filter>
  </defs>
  <g fill="none" fill-rule="evenodd" transform="translate(47 59)">
    <use fill="#000" filter="url(#facebook-a)" xlink:href="#facebook-b"/>
    <use fill="#FFF" fill-opacity=".8" xlink:href="#facebook-b"/>
    <path stroke="#FF00CB" stroke-linecap="round" stroke-linejoin="round" stroke-width="3" d="M10.3678292,11.3168342 C14.9617047,6.54615412 20.8954319,2.94772574 27.7810977,1.17630792 C47.565496,-3.91598642 67.7309443,7.99774215 72.8235065,27.7809309 C77.9160688,47.5660414 66.0035911,67.7338495 46.2194673,72.8233986 C26.4352062,77.9158302 6.26838527,66.005945 1.17513671,46.2191874 C-1.31321822,36.5460518 0.263142547,26.7790263 4.83629088,18.7279632"/>
  </g>
</svg>
