<svg xmlns="http://www.w3.org/2000/svg" width="535" height="535" viewBox="0 0 535 535">
  <defs>
    <linearGradient id="icon-mono-a" x1="50.006%" x2="50.006%" y1="-857.982%" y2="674.044%">
      <stop offset="0%" stop-color="#ECE956"/>
      <stop offset="100%" stop-color="#EF3F6B"/>
    </linearGradient>
    <linearGradient id="icon-mono-b" x1="50.007%" x2="50.007%" y1="-1355.881%" y2="484.498%">
      <stop offset="0%" stop-color="#ECE956"/>
      <stop offset="100%" stop-color="#EF3F6B"/>
    </linearGradient>
    <linearGradient id="icon-mono-c" x1="50%" x2="50%" y1="-1686.532%" y2="357.372%">
      <stop offset="0%" stop-color="#ECE956"/>
      <stop offset="100%" stop-color="#EF3F6B"/>
    </linearGradient>
    <linearGradient id="icon-mono-d" x1="50.006%" x2="50.006%" y1="-1083.223%" y2="587.275%">
      <stop offset="0%" stop-color="#ECE956"/>
      <stop offset="100%" stop-color="#EF3F6B"/>
    </linearGradient>
    <linearGradient id="icon-mono-e" x1="50%" x2="50%" y1="-1699.306%" y2="160.778%">
      <stop offset="0%" stop-color="#ECE956"/>
      <stop offset="100%" stop-color="#EF3F6B"/>
    </linearGradient>
    <linearGradient id="icon-mono-f" x1="50%" x2="50%" y1="7.299%" y2="209.079%">
      <stop offset="0%" stop-color="#ECE956"/>
      <stop offset="100%" stop-color="#EF3F6B"/>
    </linearGradient>
    <linearGradient id="icon-mono-g" x1="50.006%" x2="50.006%" y1="-667.225%" y2="747.53%">
      <stop offset="0%" stop-color="#ECE956"/>
      <stop offset="100%" stop-color="#EF3F6B"/>
    </linearGradient>
  </defs>
  <g fill="none" fill-rule="evenodd" transform="translate(26 153)">
    <g transform="translate(120.356)">
      <path fill="url(#icon-mono-a)" d="M2.08181829,136.477458 C3.05684711,141.587789 4.37445362,146.566411 5.98193357,151.413323 L223.78229,151.413323 C225.416122,146.566411 226.707377,141.587789 227.682405,136.477458 L2.08181829,136.477458 Z"/>
      <path fill="url(#icon-mono-b)" d="M18.2620263,176.912296 C21.0817042,181.258712 24.1649035,185.420735 27.511624,189.34568 L202.2526,189.34568 C205.59932,185.420735 208.708872,181.258712 211.502198,176.912296 L18.2620263,176.912296 Z"/>
      <path fill="url(#icon-mono-c)" d="M181.566178,208.3382 C186.309561,204.940093 190.789423,201.199541 194.979412,197.142886 L34.8111641,197.142886 C38.9748007,201.199541 43.4546628,204.940093 48.2243984,208.3382 L181.566178,208.3382 Z"/>
      <path fill="url(#icon-mono-d)" d="M7.90563908,156.708048 C9.7502882,161.423251 11.9111629,166.006744 14.3355589,170.405843 L215.428665,170.405843 C217.853061,166.006744 220.013936,161.449593 221.858585,156.708048 L7.90563908,156.708048 Z"/>
      <path fill="url(#icon-mono-e)" d="M63.1397041,217.373477 C78.687461,225.223367 96.2643319,229.675151 114.895288,229.675151 C133.526244,229.675151 151.103115,225.249709 166.650872,217.373477 L63.1397041,217.373477 Z"/>
      <path fill="url(#icon-mono-f)" d="M229.685167,113.401941 C228.947308,50.6291592 177.797823,0 114.842584,0 C51.8873445,0 0.764211778,50.6555012 0,113.401941 L229.685167,113.401941 Z"/>
      <path fill="url(#icon-mono-g)" d="M0.0527042605,116.246868 C0.105408521,121.752328 0.579746866,127.15242 1.37031077,132.420803 L228.393913,132.420803 C229.210829,127.126078 229.658815,121.725986 229.71152,116.246868 L0.0527042605,116.246868 Z"/>
      <path fill="#000" d="M2.08181829,136.477458 L227.682405,136.477458 C226.707377,141.587789 225.416122,146.566411 223.78229,151.413323 L5.98193357,151.413323 C4.37445362,146.566411 3.05684711,141.587789 2.08181829,136.477458 Z M18.2620263,176.912296 L211.502198,176.912296 C208.708872,181.258712 205.59932,185.420735 202.2526,189.34568 L27.511624,189.34568 C24.1649035,185.420735 21.0817042,181.258712 18.2620263,176.912296 Z M181.566178,208.3382 L48.2243984,208.3382 C43.4546628,204.940093 38.9748007,201.199541 34.8111641,197.142886 L194.979412,197.142886 C190.789423,201.199541 186.309561,204.940093 181.566178,208.3382 Z M7.90563908,156.708048 L221.858585,156.708048 C220.013936,161.449593 217.853061,166.006744 215.428665,170.405843 L14.3355589,170.405843 C11.9111629,166.006744 9.7502882,161.423251 7.90563908,156.708048 Z M0.0527042605,116.246868 L229.71152,116.246868 C229.658815,121.725986 229.210829,127.126078 228.393913,132.420803 L1.37031077,132.420803 C0.579746866,127.15242 0.105408521,121.752328 0.0527042605,116.246868 Z M63.1397041,217.373477 L166.650872,217.373477 C151.103115,225.249709 133.526244,229.675151 114.895288,229.675151 C96.2643319,229.675151 78.687461,225.223367 63.1397041,217.373477 Z M229.685167,113.401941 L0,113.401941 C0.764211778,50.6555012 51.8873445,0 114.842584,0 C177.797823,0 228.947308,50.6291592 229.685167,113.401941 Z" style="mix-blend-mode:saturation"/>
    </g>
    <g transform="translate(0 27.486)">
      <path fill="#383838" d="M133.799267,116.812332 C133.890786,116.903815 133.845027,117.041038 133.66199,117.224005 C133.204396,117.589938 132.723929,117.910125 132.220576,118.184575 C131.717223,118.459024 131.236756,118.73347 130.779162,119.00792 C127.20993,120.563136 123.640751,122.1412 120.071518,123.742157 C116.502286,125.343115 112.933107,126.921179 109.363874,128.476395 C104.055785,130.671994 98.7477752,132.798949 93.4396859,134.857323 C88.1315965,136.915697 82.777828,138.905429 77.3782199,140.826579 C68.7754544,144.028494 60.1041798,147.047398 51.3641361,149.883381 C42.6240924,152.719363 33.7240244,154.869188 24.6636649,156.332921 C23.1078456,156.607371 21.3232561,156.836076 19.3098429,157.019042 C17.2964297,157.202009 15.3059261,157.156268 13.3382723,156.881818 C11.3706184,156.607368 9.63178765,155.989865 8.12172775,155.029291 C6.61166784,154.068716 5.6736144,152.536394 5.30753927,150.432278 C4.84994536,148.236678 5.21601499,146.018241 6.40575916,143.776901 C7.59550333,141.53556 8.73947095,139.500087 9.83769634,137.670421 C13.1323725,132.455872 16.7015515,127.447237 20.5453403,122.644363 C24.3891292,117.84149 28.2786191,113.1073 32.2139267,108.441651 C40.084542,99.0188713 48.0694359,89.8020668 56.1688482,80.7909614 C64.2682604,71.7798561 72.5277066,62.7917564 80.9474346,53.8263927 C89.0926062,45.0439956 97.2834143,36.4446941 105.520105,28.0282303 C108.9063,24.5518648 112.292444,21.0984219 115.678639,17.667798 C119.064834,14.2371742 122.542495,10.9209542 126.111728,7.71903857 C126.203247,7.62755527 126.546437,7.330239 127.141309,6.82708083 C127.736181,6.32392266 128.399682,5.79790156 129.131832,5.24900174 C129.863983,4.70010193 130.527484,4.26556276 131.122356,3.9453712 C131.717228,3.62517964 132.060418,3.60230915 132.151937,3.87675906 C132.334975,4.24269227 132.266337,4.67723144 131.946021,5.18038961 C131.625705,5.68354778 131.374032,6.07234598 131.190995,6.34679589 C128.079356,11.3783776 124.647453,16.2040494 120.895183,20.8239562 C117.142913,25.443863 113.390699,29.995089 109.638429,34.4777709 C101.950852,43.9005511 94.1947512,53.1402261 86.3698953,62.1970731 C78.5450394,71.2539201 70.6516628,80.3563722 62.6895288,89.5047025 C58.5711836,94.2618342 54.4986589,98.9731536 50.4718325,103.638802 C46.445006,108.304451 42.3724813,113.061511 38.2541361,117.910126 C36.1492041,120.288692 34.1129418,122.690093 32.145288,125.1144 C30.1776341,127.538708 28.2328892,129.985849 26.3109948,132.455898 C24.3891003,134.834464 22.5129934,137.258735 20.6826178,139.728785 C18.8522422,142.198834 17.2049288,144.760328 15.7406283,147.413344 C21.5063116,147.413344 27.1575116,146.795841 32.6943979,145.560816 C38.2312842,144.325791 43.7452081,143.022174 49.2363351,141.649924 C54.727462,140.277675 60.1498685,138.791093 65.5037173,137.190136 C70.857566,135.589178 76.2799725,134.011115 81.7710995,132.455898 C89.1841208,130.260299 96.5741516,127.92751 103.941414,125.457461 C111.308676,122.987412 118.698706,120.700363 126.111728,118.596247 C126.203247,118.596247 126.660834,118.459024 127.484503,118.184575 C128.308172,117.910125 129.177587,117.635679 130.092775,117.361229 C131.007963,117.086779 131.831619,116.880945 132.56377,116.74372 C133.29592,116.606495 133.707748,116.629365 133.799267,116.812332 Z M190.36555,81.8201434 C191.555294,82.1860767 192.516227,82.8035797 193.248377,83.6726711 C193.980528,84.5417624 194.300839,84.9305606 194.20932,84.8390773 C193.934763,84.747594 193.545814,84.6332416 193.042461,84.4960167 C192.539108,84.3587917 191.829848,84.2444393 190.91466,84.152956 C189.175803,83.9699894 187.436972,84.1300828 185.698116,84.6332409 C183.959259,85.1363991 182.220428,85.8682545 180.481571,86.8288292 C178.742714,87.7894039 176.981004,88.932928 175.196388,90.2594359 C173.411772,91.5859438 171.604303,92.9810433 169.773927,94.4447761 C168.950258,95.1766425 167.440221,96.6403534 165.24377,98.8359527 C163.047319,101.031552 160.828022,103.570176 158.585812,106.4519 C156.343602,109.333624 154.375977,112.352527 152.68288,115.508701 C150.989782,118.664875 150.143246,121.523686 150.143246,124.085218 C152.797291,123.719285 155.908883,122.415667 159.478116,120.174326 C163.047348,117.932985 166.52501,115.28001 169.911205,112.215319 C173.2974,109.150628 176.363233,105.90302 179.108796,102.472396 C181.85436,99.041772 183.730467,95.9085158 184.737173,93.0725334 C185.103248,92.1577004 185.332042,91.2657516 185.423561,90.3966602 C185.515079,89.5275688 185.423562,88.589879 185.149006,87.5835627 C184.965968,87.0346629 184.874451,86.7144761 184.874451,86.6229928 C184.965969,86.2570596 185.354918,86.462894 186.041309,87.240502 C186.7277,88.0181101 187.208167,88.9557999 187.482723,90.0535995 C188.580948,94.1703482 188.054723,98.4242579 185.904032,102.815456 C183.75334,107.206655 180.779025,111.277601 176.980995,115.028416 C173.182966,118.779232 169.018924,122.02684 164.488744,124.771339 C159.958564,127.515838 155.86316,129.345477 152.202409,130.26031 C149.731402,130.992177 147.397708,130.992177 145.201257,130.26031 C143.370881,129.528444 142.089638,128.247697 141.357487,126.418031 C140.625337,124.588365 140.396544,122.758726 140.6711,120.92906 C141.037175,118.550494 141.700676,116.286316 142.661623,114.136459 C143.622571,111.986601 144.835176,109.859646 146.299477,107.75553 C147.58074,105.925864 149.182294,103.913262 151.104189,101.717662 C153.026083,99.5220631 155.199622,97.3493672 157.624869,95.1995096 C160.050117,93.049652 162.658363,90.9913085 165.449686,89.0244175 C168.241009,87.0575265 171.055169,85.4337222 173.892252,84.152956 C176.729334,82.8721898 179.543494,81.9802409 182.334817,81.4770828 C185.12614,80.9739246 187.803024,81.088277 190.36555,81.8201434 Z M269.033509,76.1939484 C269.125027,76.2854317 269.056389,76.5141366 268.827592,76.8800698 C268.598795,77.246003 268.347123,77.6348012 268.072566,78.0464761 C267.79801,78.4581509 267.523458,78.8469491 267.248901,79.2128823 C266.974345,79.5788156 266.79131,79.8075204 266.699791,79.8990037 C265.418528,81.5457031 264.114405,83.1466369 262.787383,84.7018531 C261.460361,86.2570692 260.156238,87.812262 258.874975,89.3674782 C255.48878,93.3927435 252.056877,97.349337 248.579163,101.237377 C245.101449,105.125418 241.623788,109.03627 238.146074,112.970052 C235.766586,115.714551 233.341374,118.436139 230.870367,121.134896 C228.39936,123.833654 225.882631,126.600982 223.320105,129.436965 C222.862512,129.894381 222.427804,130.260309 222.015969,130.534759 C221.604135,130.809209 221.07791,131.037913 220.437278,131.22088 C219.339053,131.403847 218.332361,131.129401 217.417174,130.397534 C216.501986,129.665668 215.99864,128.705108 215.907121,127.515825 C215.815602,126.875442 215.88424,126.30368 216.113037,125.800521 C216.341834,125.297363 216.547749,124.771342 216.730786,124.222442 C218.286605,119.556794 220.162712,115.005568 222.359163,110.568628 C224.555614,106.131687 226.889308,101.397498 229.360315,96.3659159 C228.811202,96.7318491 228.445133,97.0062949 228.262095,97.1892615 C225.058938,99.750794 222.176139,102.380899 219.613613,105.079657 C217.051087,107.778414 214.602997,110.500002 212.269268,113.244501 C209.935539,115.989 207.624724,118.802069 205.336755,121.683793 C203.048785,124.565517 200.623574,127.51581 198.061048,130.534759 C197.328898,131.449592 196.390844,131.907001 195.246859,131.907001 C194.102875,131.907001 193.119062,131.541074 192.295393,130.809207 C191.288687,129.802891 190.922617,128.773719 191.197174,127.721661 C191.47173,126.669603 191.883558,125.640431 192.432671,124.634115 C193.713934,122.164066 195.132454,119.602572 196.688273,116.949556 C198.152574,114.388024 199.616852,111.8494 201.081153,109.333609 C202.545453,106.817818 204.05549,104.324936 205.61131,101.854887 L210.004189,94.7192247 C211.46849,92.3406588 213.115803,90.0993515 214.946179,87.9952355 C215.129216,87.8122689 215.380889,87.5149526 215.701205,87.1032778 C216.021521,86.6916029 216.364711,86.4400276 216.730786,86.3485443 C216.913824,86.3485443 217.005341,86.5315082 217.005341,86.8974414 C217.005341,87.2633746 216.959582,87.4920794 216.868064,87.5835627 C216.685026,88.8643289 216.364715,90.099335 215.907121,91.2886179 L214.534346,94.8564489 C213.52764,97.5094647 212.475189,100.185311 211.376964,102.884069 C210.278739,105.582826 209.089012,108.258673 207.807749,110.911688 C210.553313,108.350156 213.573387,105.537086 216.868064,102.472396 C220.16274,99.4077052 223.388728,96.5031539 226.546126,93.7586548 C229.703524,91.0141557 232.563443,88.6356255 235.125969,86.6229928 C237.688495,84.6103602 239.564602,83.4210951 240.754346,83.0551619 C242.035609,82.5977453 242.72199,82.8721911 242.813509,83.8785075 C242.905027,84.8848238 242.653355,86.2570528 242.058482,87.9952355 C241.46361,89.7334183 240.617074,91.7231503 239.518849,93.9644912 C238.420624,96.2058321 237.322415,98.4013984 236.224189,100.551256 C235.125964,102.701114 234.165031,104.645105 233.341362,106.383287 C232.517693,108.12147 232.014347,109.356476 231.83131,110.088343 C235.766617,106.246044 239.701866,102.449544 243.637174,98.6987284 C247.572481,94.947913 251.599247,91.1514129 255.717592,87.3091142 C257.273412,85.8453813 258.852087,84.4045409 260.453666,82.9865497 C262.055244,81.5685585 263.63392,80.1734591 265.189739,78.8012095 C265.281258,78.7097262 265.510051,78.5038919 265.876126,78.1837003 C266.242202,77.8635088 266.65403,77.543322 267.111624,77.2231305 C267.569218,76.9029389 267.981046,76.6284931 268.347121,76.3997848 C268.713196,76.1710766 268.94199,76.1024651 269.033509,76.1939484 Z M322.305132,124.771339 C322.305132,125.137273 321.847545,125.526071 320.932357,125.937746 C320.017169,126.349421 318.94184,126.715348 317.706336,127.03554 C316.470833,127.355731 315.281106,127.653048 314.137122,127.927498 C312.993137,128.201947 312.283877,128.384911 312.009321,128.476395 C309.355276,129.025294 306.701271,129.505575 304.047226,129.917249 C301.393182,130.328924 298.739177,130.717723 296.085132,131.083656 C293.888681,131.358106 291.303314,131.678292 288.328954,132.044226 C285.354594,132.410159 282.334519,132.684605 279.26864,132.867571 C276.202761,133.050538 273.251324,133.096279 270.414242,133.004796 C267.57716,132.913312 265.197707,132.547384 263.275813,131.907001 C262.635181,131.632551 262.360629,131.380976 262.452148,131.152268 C262.543667,130.92356 262.795339,130.694855 263.207174,130.466147 C263.619008,130.237438 264.099475,130.054474 264.648588,129.917249 C265.1977,129.780025 265.56377,129.665672 265.746807,129.574189 C269.773634,128.567872 273.8004,127.790276 277.827226,127.241376 C281.854053,126.692476 285.83506,126.189326 289.770368,125.731909 C295.62757,125.091526 301.484684,124.542635 307.341886,124.085218 C309.629856,123.902251 311.94067,123.742158 314.274399,123.604933 C316.608128,123.467708 318.873184,123.627802 321.069635,124.085218 C321.252672,124.176701 321.504345,124.268183 321.824661,124.359667 C322.144977,124.45115 322.305132,124.588373 322.305132,124.771339 Z M395.619269,101.992111 C395.710787,102.175077 395.344718,102.632487 394.521049,103.364354 C393.69738,104.09622 392.736447,104.942428 391.638221,105.903003 C390.539996,106.863577 389.441787,107.778397 388.343562,108.647488 C387.245336,109.516579 386.513197,110.134082 386.147122,110.500016 C384.682821,111.597815 383.241422,112.718469 381.822881,113.86201 C380.40434,115.005551 378.962941,116.126205 377.49864,117.224005 C375.302189,119.053671 373.197289,120.883309 371.183876,122.712975 C369.170463,124.542641 367.15708,126.463762 365.143666,128.476395 L363.29042,130.328922 C362.695548,130.923564 362.032047,131.449585 361.299897,131.907001 C360.018634,132.638868 358.691631,132.707479 357.31885,132.112838 C355.946068,131.518196 355.213929,130.443284 355.12241,128.888067 C354.939372,127.424335 355.236804,125.960624 356.014714,124.496891 C356.792623,123.033158 357.547642,121.752411 358.279792,120.654611 C360.384724,117.178246 362.581142,113.816285 364.869111,110.568628 C367.157081,107.32097 369.30774,103.959009 371.321153,100.482644 C371.687228,99.9337441 371.755867,99.2476296 371.52707,98.4242799 C371.298273,97.6009302 371.092358,96.8233338 370.909321,96.0914673 C367.889201,98.8359664 364.457298,101.649036 360.613509,104.53076 C356.769721,107.412484 353.154783,109.996848 349.768588,112.283931 C346.382393,114.571014 343.476715,116.354911 341.051467,117.635677 C338.62622,118.916444 337.322097,119.419594 337.139059,119.145144 C337.04754,118.962178 337.7568,118.276063 339.26686,117.08678 C340.77692,115.897497 342.675906,114.388046 344.963876,112.55838 L352.514138,106.520512 C355.259701,104.324912 357.845068,102.129346 360.270316,99.9337469 C362.695563,97.7381476 364.777584,95.6798041 366.516441,93.7586548 C368.255298,91.8375054 369.26199,90.2365716 369.536546,88.9558054 C369.445027,87.4005892 369.467907,85.6624326 369.605185,83.7412832 C369.742463,81.8201338 370.451723,80.1277181 371.732986,78.6639853 C372.831211,77.4747023 374.158214,76.8800698 375.714033,76.8800698 C377.269852,76.8800698 378.41382,77.7034072 379.14597,79.3501066 C379.87812,80.9968061 379.923879,82.5748694 379.283248,84.0843439 C378.642616,85.5938184 377.956236,87.0346588 377.224085,88.4069083 C377.041048,88.8643248 376.858013,89.2759935 376.674975,89.6419267 C376.491938,90.0078599 376.40042,90.4652696 376.40042,91.0141694 C376.583458,92.2949357 376.926648,93.5070712 377.430002,94.6506125 C377.933355,95.7941538 378.505339,97.0062894 379.14597,98.2870556 C379.87812,100.116722 380.084035,101.832008 379.763719,103.432966 C379.443403,105.033923 378.688384,106.611987 377.49864,108.167203 C376.400415,109.722419 375.256447,111.300482 374.066703,112.90144 C372.876959,114.502398 371.732991,116.080461 370.634766,117.635677 C372.739698,116.263428 374.79884,114.845458 376.812253,113.381725 C378.825666,111.917992 380.884808,110.500022 382.98974,109.127773 C383.264296,108.944806 384.042194,108.418785 385.323457,107.549694 C386.60472,106.680602 388.00036,105.811524 389.51042,104.942433 C391.02048,104.073341 392.370362,103.295745 393.560106,102.60962 C394.74985,101.923495 395.436231,101.717661 395.619269,101.992111 Z M446.145342,99.7965226 C446.32838,99.9794892 446.053828,100.48264 445.321677,101.30599 C444.589527,102.129339 443.742991,103.044159 442.782044,104.050475 C441.821097,105.056791 440.883043,105.994481 439.967855,106.863572 C439.052667,107.732664 438.503563,108.258685 438.320525,108.441651 C434.659774,111.643567 430.90756,114.776823 427.063772,117.841514 C423.219983,120.906205 419.010182,123.719274 414.434243,126.280806 C412.237792,127.561573 409.949857,128.727967 407.570368,129.780025 C405.19088,130.832083 402.71991,131.403845 400.157384,131.495329 C397.960933,131.495329 396.016188,130.786344 394.323091,129.368352 C392.629993,127.950361 391.920734,126.052111 392.19529,123.673545 C392.744403,118.458997 394.437475,113.747678 397.274557,109.539446 C400.111639,105.331214 403.26899,101.35175 406.746703,97.6009343 C408.48556,95.7712682 410.315909,94.055982 412.237803,92.4550242 C414.159697,90.8540664 416.17308,89.3217441 418.278012,87.8580112 C420.291426,86.3942784 422.396326,85.0906609 424.592777,83.9471196 C426.789228,82.8035783 429.077163,81.8658885 431.456651,81.1340221 C432.554876,80.7680889 433.744603,80.5622545 435.025866,80.5165129 C436.307129,80.4707712 437.496855,80.7223465 438.59508,81.2712464 C440.791531,82.5520126 441.798223,84.3130398 441.615185,86.5543807 C441.432148,88.7957216 440.562732,91.1056404 439.006913,93.4842062 C438.274763,94.4905226 437.542623,95.4510828 436.810473,96.3659159 C436.078323,97.2807489 435.300425,98.1955682 434.476756,99.1104012 C431.18208,102.67825 427.475625,105.697154 423.357279,108.167203 C420.428678,109.813902 417.500121,111.254743 414.57152,112.489767 C411.642919,113.724792 408.302534,114.845446 404.550264,115.851762 C402.53685,118.504778 401.072572,121.4322 400.157384,124.634115 C402.811429,124.634115 405.739986,124.016612 408.943143,122.781588 C412.146301,121.546563 415.34941,119.99137 418.552567,118.115962 C421.755725,116.240555 424.913075,114.273693 428.024714,112.215319 C431.136353,110.156945 433.973392,108.304435 436.535918,106.657736 C436.718956,106.566253 437.313819,106.154584 438.320525,105.422718 C439.327232,104.690851 440.402562,103.890384 441.546546,103.021293 C442.690531,102.152202 443.742981,101.397476 444.703929,100.757092 L446.145342,99.7965226 Z M411.002306,107.206633 C410.087118,108.212949 409.377858,109.082028 408.874505,109.813894 C408.371151,110.545761 407.799167,111.369098 407.158536,112.283931 C410.270175,111.460581 413.313128,110.248446 416.287489,108.647488 C419.261849,107.04653 422.007372,105.14828 424.524138,102.952681 C427.040905,100.757081 429.283081,98.2870694 431.250735,95.5425703 C433.218389,92.7980712 434.751305,89.8249084 435.849531,86.6229928 C430.999035,88.9100754 426.6062,91.8832381 422.670892,95.5425703 C418.735584,99.2019024 414.846094,103.089884 411.002306,107.206633 Z M482.943667,82.094592 C483.035186,83.1009083 482.852151,84.0157276 482.394557,84.8390773 C481.936963,85.6624271 481.36498,86.417153 480.678589,87.1032778 C479.992198,87.7894025 479.260059,88.4526465 478.482149,89.0930297 C477.704239,89.7334128 477.086497,90.4652682 476.628903,91.2886179 C475.713715,92.8438341 474.912938,94.4905089 474.226547,96.2286916 C473.540156,97.9668744 472.922413,99.705031 472.373301,101.443214 C471.824188,103.364363 471.297963,105.216872 470.79461,107.000797 C470.291256,108.784721 469.81079,110.591489 469.353196,112.421155 C468.438008,115.623071 467.019488,118.641975 465.097594,121.477957 C463.175699,124.313939 460.750488,126.509506 457.821887,128.064722 C454.344173,129.802905 450.912271,130.53476 447.526076,130.26031 C445.6957,129.98586 444.185663,129.48271 442.995919,128.750843 C442.9044,128.750843 442.629847,128.61362 442.172254,128.33917 C441.71466,128.06472 441.234193,127.790275 440.73084,127.515825 C440.227487,127.241375 439.815658,126.944059 439.495343,126.623867 C439.175027,126.303675 439.06063,126.0521 439.152149,125.869134 C439.243668,125.686167 439.747013,125.754778 440.662201,126.07497 C441.577389,126.395162 442.126494,126.555255 442.309531,126.555255 C443.499275,126.921188 444.826278,127.104152 446.290578,127.104152 C448.944623,126.921185 451.278317,126.052107 453.29173,124.496891 C455.030587,123.216125 456.609262,121.523709 458.027803,119.419593 C459.446344,117.315477 460.29288,115.211393 460.567437,113.107277 C460.933512,111.003161 461.276702,108.830465 461.597018,106.589124 C461.917334,104.347783 462.214765,102.037864 462.489322,99.6592983 C460.201352,101.763414 457.364312,104.004722 453.978117,106.383287 C450.591923,108.761853 447.274416,110.934549 444.0255,112.90144 C440.776583,114.868331 437.962423,116.469265 435.582934,117.70429 C433.203446,118.939314 431.876443,119.419594 431.601887,119.145144 C431.41885,118.870694 432.631455,117.750041 435.23974,115.78315 C437.848026,113.816259 441.005376,111.391988 444.711887,108.510264 C448.418398,105.62854 452.21637,102.449542 456.105919,98.973177 C459.995467,95.4968115 463.129938,92.0662391 465.509426,88.6813569 C466.333095,87.4005906 467.156752,86.1427141 467.980421,84.9076895 C468.80409,83.6726649 469.719264,82.4147883 470.725971,81.1340221 C471.732677,80.1277058 472.853766,79.2586274 474.089269,78.526761 C475.324773,77.7948946 476.674655,77.4289669 478.138955,77.4289669 C479.420218,77.4289669 480.518427,77.8863765 481.433615,78.8012095 C482.348803,79.7160426 482.852148,80.8138257 482.943667,82.094592 Z"/>
      <path fill="#FFF" d="M128.825445,113.829196 C128.916964,113.920679 128.871205,114.057902 128.688168,114.240868 C128.230574,114.606802 127.750107,114.926988 127.246754,115.201438 C126.743401,115.475888 126.262934,115.750334 125.80534,116.024784 C122.236108,117.58 118.666929,119.158063 115.097696,120.759021 C111.528464,122.359979 107.959285,123.938042 104.390052,125.493258 C99.081963,127.688858 93.7739532,129.815813 88.4658639,131.874187 C83.1577745,133.932561 77.8040061,135.922293 72.4043979,137.843443 C63.8016324,141.045358 55.1303578,144.064262 46.3903141,146.900244 C37.6502704,149.736227 28.7502024,151.886052 19.6898429,153.349785 C18.1340236,153.624235 16.3494342,153.85294 14.3360209,154.035906 C12.3226077,154.218873 10.3321041,154.173132 8.36445026,153.898682 C6.39679644,153.624232 4.65796567,153.006729 3.14790576,152.046154 C1.63784585,151.08558 0.699792406,149.553257 0.333717277,147.449141 C-0.123876634,145.253542 0.242193004,143.035105 1.43193717,140.793764 C2.62168134,138.552423 3.76564896,136.51695 4.86387435,134.687284 C8.1585505,129.472736 11.7277295,124.4641 15.5715183,119.661227 C19.4153072,114.858354 23.3047971,110.124164 27.2401047,105.458515 C35.11072,96.035735 43.095614,86.8189305 51.1950262,77.8078252 C59.2944384,68.7967198 67.5538846,59.8086201 75.9736126,50.8432564 C84.1187842,42.0608594 92.3095923,33.4615579 100.546283,25.045094 C103.932478,21.5687285 107.318622,18.1152856 110.704817,14.6846618 C114.091012,11.2540379 117.568673,7.93781791 121.137906,4.73590231 C121.229425,4.644419 121.572615,4.34710273 122.167487,3.84394456 C122.762359,3.3407864 123.42586,2.8147653 124.15801,2.26586548 C124.890161,1.71696566 125.553662,1.28242649 126.148534,0.962234929 C126.743406,0.642043369 127.086596,0.619172886 127.178115,0.893622795 C127.361153,1.25955601 127.292515,1.69409518 126.972199,2.19725334 C126.651883,2.70041151 126.40021,3.08920972 126.217173,3.36365962 C123.105534,8.39524128 119.673631,13.2209131 115.921361,17.8408199 C112.169091,22.4607267 108.416877,27.0119528 104.664607,31.4946346 C96.9770296,40.9174148 89.2209292,50.1570898 81.3960733,59.2139368 C73.5712174,68.2707838 65.6778409,77.3732359 57.7157068,86.5215662 C53.5973616,91.2786979 49.5248369,95.9900174 45.4980105,100.655666 C41.4711841,105.321314 37.3986593,110.078375 33.2803141,114.92699 C31.1753821,117.305556 29.1391198,119.706956 27.171466,122.131264 C25.2038122,124.555571 23.2590672,127.002713 21.3371728,129.472762 C19.4152783,131.851328 17.5391715,134.275599 15.7087958,136.745648 C13.8784202,139.215698 12.2311068,141.777192 10.7668063,144.430207 C16.5324896,144.430207 22.1836896,143.812704 27.7205759,142.57768 C33.2574622,141.342655 38.7713862,140.039038 44.2625131,138.666788 C49.75364,137.294539 55.1760465,135.807957 60.5298953,134.206999 C65.883744,132.606042 71.3061506,131.027978 76.7972775,129.472762 C84.2102988,127.277163 91.6003297,124.944374 98.9675916,122.474324 C106.334854,120.004275 113.724884,117.717227 121.137906,115.613111 C121.229425,115.613111 121.687012,115.475888 122.510681,115.201438 C123.33435,114.926988 124.203765,114.652543 125.118953,114.378093 C126.034141,114.103643 126.857797,113.897808 127.589948,113.760583 C128.322098,113.623358 128.733926,113.646229 128.825445,113.829196 Z M185.391728,78.8370072 C186.581472,79.2029404 187.542405,79.8204434 188.274555,80.6895348 C189.006706,81.5586262 189.327017,81.9474244 189.235498,81.8559411 C188.960941,81.7644578 188.571992,81.6501054 188.068639,81.5128804 C187.565286,81.3756554 186.856026,81.261303 185.940838,81.1698197 C184.201981,80.9868531 182.46315,81.1469465 180.724294,81.6501047 C178.985437,82.1532628 177.246606,82.8851183 175.507749,83.845693 C173.768892,84.8062676 172.007182,85.9497918 170.222566,87.2762997 C168.43795,88.6028076 166.630481,89.997907 164.800105,91.4616399 C163.976436,92.1935063 162.466399,93.6572172 160.269948,95.8528164 C158.073497,98.0484157 155.8542,100.587039 153.61199,103.468763 C151.36978,106.350487 149.402155,109.369391 147.709058,112.525565 C146.015961,115.681739 145.169424,118.540549 145.169424,121.102082 C147.823469,120.736149 150.935061,119.432531 154.504294,117.19119 C158.073526,114.949849 161.551188,112.296873 164.937383,109.232183 C168.323578,106.167492 171.389411,102.919883 174.134974,99.4892595 C176.880538,96.0586357 178.756645,92.9253796 179.763351,90.0893972 C180.129426,89.1745641 180.35822,88.2826153 180.449739,87.4135239 C180.541257,86.5444326 180.44974,85.6067428 180.175184,84.6004264 C179.992146,84.0515266 179.900629,83.7313399 179.900629,83.6398566 C179.992147,83.2739233 180.381096,83.4797577 181.067487,84.2573658 C181.753878,85.0349738 182.234345,85.9726636 182.508901,87.0704633 C183.607126,91.1872119 183.080901,95.4411217 180.93021,99.8323202 C178.779518,104.223519 175.805203,108.294465 172.007173,112.04528 C168.209144,115.796096 164.045102,119.043704 159.514922,121.788203 C154.984742,124.532702 150.889338,126.362341 147.228587,127.277174 C144.75758,128.00904 142.423886,128.00904 140.227435,127.277174 C138.397059,126.545307 137.115816,125.26456 136.383665,123.434894 C135.651515,121.605228 135.422722,119.77559 135.697278,117.945924 C136.063353,115.567358 136.726854,113.30318 137.687801,111.153322 C138.648749,109.003465 139.861354,106.87651 141.325655,104.772394 C142.606918,102.942728 144.208472,100.930125 146.130367,98.7345261 C148.052261,96.5389268 150.2258,94.3662309 152.651047,92.2163733 C155.076295,90.0665157 157.684541,88.0081723 160.475864,86.0412813 C163.267187,84.0743902 166.081347,82.450586 168.91843,81.1698197 C171.755512,79.8890535 174.569672,78.9971047 177.360995,78.4939465 C180.152318,77.9907883 182.829202,78.1051407 185.391728,78.8370072 Z M264.059687,73.2108122 C264.151205,73.3022955 264.082567,73.5310003 263.85377,73.8969335 C263.624973,74.2628667 263.373301,74.6516649 263.098744,75.0633398 C262.824188,75.4750147 262.549636,75.8638129 262.275079,76.2297461 C262.000523,76.5956793 261.817488,76.8243841 261.725969,76.9158674 C260.444706,78.5625669 259.140583,80.1635007 257.813561,81.7187168 C256.486539,83.273933 255.182416,84.8291258 253.901153,86.3843419 C250.514958,90.4096073 247.083055,94.3662008 243.605341,98.2542411 C240.127627,102.142282 236.649966,106.053134 233.172252,109.986916 C230.792764,112.731415 228.367552,115.453003 225.896545,118.15176 C223.425538,120.850517 220.908809,123.617846 218.346283,126.453828 C217.88869,126.911245 217.453982,127.277172 217.042147,127.551622 C216.630313,127.826072 216.104088,128.054777 215.463456,128.237744 C214.365231,128.42071 213.358539,128.146265 212.443352,127.414398 C211.528164,126.682532 211.024818,125.721971 210.933299,124.532689 C210.84178,123.892305 210.910418,123.320543 211.139215,122.817385 C211.368012,122.314227 211.573927,121.788206 211.756964,121.239306 C213.312783,116.573658 215.18889,112.022432 217.385341,107.585491 C219.581792,103.148551 221.915486,98.4143613 224.386493,93.3827796 C223.83738,93.7487128 223.471311,94.0231586 223.288273,94.2061252 C220.085116,96.7676577 217.202317,99.3977632 214.639791,102.096521 C212.077265,104.795278 209.629175,107.516866 207.295446,110.261365 C204.961717,113.005864 202.650902,115.818933 200.362933,118.700657 C198.074963,121.582381 195.649752,124.532673 193.087226,127.551622 C192.355076,128.466455 191.417022,128.923865 190.273037,128.923865 C189.129053,128.923865 188.14524,128.557937 187.321571,127.826071 C186.314865,126.819755 185.948795,125.790583 186.223352,124.738525 C186.497908,123.686467 186.909736,122.657295 187.458849,121.650979 C188.740112,119.18093 190.158632,116.619436 191.714451,113.96642 C193.178752,111.404887 194.64303,108.866264 196.107331,106.350473 C197.571631,103.834682 199.081668,101.3418 200.637488,98.8717503 L205.030367,91.7360884 C206.494668,89.3575225 208.141981,87.1162152 209.972357,85.0120992 C210.155394,84.8291326 210.407067,84.5318164 210.727383,84.1201415 C211.047699,83.7084666 211.390889,83.4568913 211.756964,83.365408 C211.940002,83.365408 212.031519,83.5483719 212.031519,83.9143051 C212.031519,84.2802383 211.98576,84.5089431 211.894242,84.6004264 C211.711204,85.8811927 211.390893,87.1161987 210.933299,88.3054817 L209.560524,91.8733127 C208.553818,94.5263284 207.501368,97.2021749 206.403142,99.9009324 C205.304917,102.59969 204.11519,105.275536 202.833927,107.928552 C205.579491,105.36702 208.599565,102.55395 211.894242,99.4892595 C215.188918,96.4245689 218.414906,93.5200176 221.572304,90.7755185 C224.729702,88.0310194 227.589621,85.6524892 230.152147,83.6398566 C232.714673,81.6272239 234.59078,80.4379588 235.780524,80.0720256 C237.061787,79.6146091 237.748168,79.8890549 237.839687,80.8953712 C237.931205,81.9016875 237.679533,83.2739165 237.08466,85.0120992 C236.489788,86.750282 235.643252,88.740014 234.545027,90.9813549 C233.446802,93.2226958 232.348593,95.4182622 231.250367,97.5681198 C230.152142,99.7179774 229.191209,101.661968 228.36754,103.400151 C227.543871,105.138334 227.040525,106.37334 226.857488,107.105206 C230.792795,103.262908 234.728044,99.4664076 238.663352,95.7155922 C242.598659,91.9647767 246.625425,88.1682766 250.74377,84.3259779 C252.29959,82.8622451 253.878265,81.4214046 255.479844,80.0034135 C257.081422,78.5854223 258.660098,77.1903228 260.215917,75.8180733 C260.307436,75.72659 260.536229,75.5207556 260.902304,75.2005641 C261.26838,74.8803725 261.680208,74.5601857 262.137802,74.2399942 C262.595396,73.9198026 263.007224,73.6453568 263.373299,73.4166486 C263.739374,73.1879403 263.968168,73.1193289 264.059687,73.2108122 Z M317.33131,121.788203 C317.33131,122.154136 316.873723,122.542935 315.958535,122.954609 C315.043347,123.366284 313.968018,123.732212 312.732514,124.052404 C311.497011,124.372595 310.307284,124.669911 309.1633,124.944361 C308.019315,125.218811 307.310055,125.401775 307.035499,125.493258 C304.381454,126.042158 301.727449,126.522438 299.073404,126.934113 C296.41936,127.345788 293.765355,127.734586 291.11131,128.100519 C288.914859,128.374969 286.329492,128.695156 283.355132,129.061089 C280.380772,129.427023 277.360697,129.701468 274.294818,129.884435 C271.228939,130.067402 268.277502,130.113143 265.44042,130.021659 C262.603338,129.930176 260.223885,129.564248 258.301991,128.923865 C257.661359,128.649415 257.386807,128.39784 257.478326,128.169132 C257.569845,127.940423 257.821517,127.711719 258.233352,127.48301 C258.645186,127.254302 259.125653,127.071338 259.674766,126.934113 C260.223878,126.796888 260.589948,126.682536 260.772985,126.591053 C264.799812,125.584736 268.826578,124.80714 272.853404,124.25824 C276.880231,123.70934 280.861238,123.20619 284.796546,122.748773 C290.653748,122.10839 296.510862,121.559498 302.368064,121.102082 C304.656034,120.919115 306.966848,120.759022 309.300577,120.621797 C311.634306,120.484572 313.899362,120.644665 316.095813,121.102082 C316.27885,121.193565 316.530523,121.285047 316.850839,121.37653 C317.171155,121.468014 317.33131,121.605237 317.33131,121.788203 Z M390.645447,99.0089746 C390.736965,99.1919412 390.370896,99.6493509 389.547227,100.381217 C388.723558,101.113084 387.762625,101.959292 386.664399,102.919866 C385.566174,103.880441 384.467965,104.79526 383.36974,105.664352 C382.271514,106.533443 381.539375,107.150946 381.1733,107.516879 C379.708999,108.614679 378.2676,109.735333 376.849059,110.878874 C375.430518,112.022415 373.989119,113.143069 372.524818,114.240868 C370.328367,116.070534 368.223467,117.900173 366.210054,119.729839 C364.196641,121.559505 362.183258,123.480626 360.169844,125.493258 L358.316598,127.345786 C357.721726,127.940427 357.058225,128.466449 356.326075,128.923865 C355.044812,129.655732 353.717809,129.724343 352.345028,129.129701 C350.972246,128.53506 350.240107,127.460147 350.148588,125.904931 C349.96555,124.441198 350.262982,122.977487 351.040892,121.513755 C351.818801,120.050022 352.57382,118.769275 353.30597,117.671475 C355.410902,114.19511 357.60732,110.833149 359.895289,107.585491 C362.183259,104.337834 364.333918,100.975873 366.347331,97.4995077 C366.713406,96.9506078 366.782045,96.2644934 366.553248,95.4411436 C366.324451,94.6177939 366.118536,93.8401975 365.935499,93.1083311 C362.915379,95.8528302 359.483476,98.6658995 355.639687,101.547624 C351.795899,104.429348 348.180961,107.013712 344.794766,109.300795 C341.408571,111.587877 338.502893,113.371775 336.077645,114.652541 C333.652398,115.933307 332.348275,116.436458 332.165237,116.162008 C332.073718,115.979042 332.782978,115.292927 334.293038,114.103644 C335.803098,112.914361 337.702084,111.404909 339.990054,109.575243 L347.540316,103.537375 C350.285879,101.341776 352.871246,99.1462099 355.296494,96.9506106 C357.721741,94.7550113 359.803762,92.6966679 361.542619,90.7755185 C363.281476,88.8543691 364.288168,87.2534354 364.562724,85.9726691 C364.471205,84.417453 364.494085,82.6792963 364.631363,80.7581469 C364.768641,78.8369976 365.477901,77.1445818 366.759164,75.680849 C367.857389,74.4915661 369.184392,73.8969335 370.740211,73.8969335 C372.29603,73.8969335 373.439998,74.7202709 374.172148,76.3669703 C374.904298,78.0136698 374.950057,79.5917331 374.309426,81.1012076 C373.668794,82.6106821 372.982414,84.0515225 372.250263,85.423772 C372.067226,85.8811886 371.884191,86.2928573 371.701153,86.6587905 C371.518116,87.0247237 371.426598,87.4821333 371.426598,88.0310331 C371.609636,89.3117994 371.952826,90.523935 372.45618,91.6674763 C372.959533,92.8110175 373.531517,94.0231531 374.172148,95.3039194 C374.904298,97.1335854 375.110213,98.8488716 374.789897,100.449829 C374.469581,102.050787 373.714562,103.628851 372.524818,105.184067 C371.426593,106.739283 370.282625,108.317346 369.092881,109.918304 C367.903137,111.519262 366.759169,113.097325 365.660944,114.652541 C367.765876,113.280292 369.825018,111.862322 371.838431,110.398589 C373.851844,108.934856 375.910986,107.516886 378.015918,106.144637 C378.290474,105.96167 379.068372,105.435649 380.349635,104.566557 C381.630898,103.697466 383.026538,102.828388 384.536598,101.959296 C386.046658,101.090205 387.39654,100.312609 388.586284,99.6264838 C389.776028,98.940359 390.462409,98.7345247 390.645447,99.0089746 Z M441.17152,96.8133863 C441.354558,96.9963529 441.080006,97.4995035 440.347855,98.3228533 C439.615705,99.146203 438.769169,100.061022 437.808222,101.067339 C436.847275,102.073655 435.909221,103.011345 434.994033,103.880436 C434.078845,104.749528 433.529741,105.275549 433.346703,105.458515 C429.685952,108.660431 425.933738,111.793687 422.08995,114.858378 C418.246161,117.923068 414.03636,120.736138 409.460421,123.29767 C407.26397,124.578436 404.976035,125.744831 402.596546,126.796889 C400.217058,127.848947 397.746088,128.420709 395.183562,128.512192 C392.987111,128.512192 391.042366,127.803207 389.349269,126.385216 C387.656171,124.967225 386.946912,123.068975 387.221468,120.690409 C387.770581,115.475861 389.463653,110.764541 392.300735,106.556309 C395.137817,102.348077 398.295168,98.3686134 401.772881,94.617798 C403.511738,92.788132 405.342087,91.0728458 407.263981,89.471888 C409.185875,87.8709302 411.199258,86.3386078 413.30419,84.874875 C415.317604,83.4111421 417.422504,82.1075246 419.618955,80.9639833 C421.815406,79.820442 424.103341,78.8827523 426.482829,78.1508858 C427.581055,77.7849526 428.770781,77.5791183 430.052044,77.5333766 C431.333307,77.487635 432.523033,77.7392103 433.621258,78.2881101 C435.817709,79.5688763 436.824401,81.3299035 436.641363,83.5712444 C436.458326,85.8125853 435.58891,88.1225041 434.033091,90.50107 C433.300941,91.5073863 432.568801,92.4679466 431.836651,93.3827796 C431.104501,94.2976126 430.326603,95.2124319 429.502934,96.127265 C426.208258,99.6951138 422.501803,102.714018 418.383457,105.184067 C415.454856,106.830766 412.526299,108.271607 409.597698,109.506631 C406.669097,110.741656 403.328712,111.862309 399.576442,112.868626 C397.563028,115.521641 396.09875,118.449063 395.183562,121.650979 C397.837607,121.650979 400.766164,121.033476 403.969321,119.798451 C407.172479,118.563427 410.375588,117.008234 413.578745,115.132826 C416.781903,113.257418 419.939253,111.290557 423.050892,109.232183 C426.162531,107.173808 428.99957,105.321299 431.562096,103.6746 C431.745134,103.583116 432.339997,103.171448 433.346703,102.439581 C434.35341,101.707715 435.42874,100.907248 436.572724,100.038157 C437.716709,99.1690652 438.769159,98.4143393 439.730107,97.7739562 L441.17152,96.8133863 Z M406.028484,104.223497 C405.113296,105.229813 404.404036,106.098891 403.900683,106.830758 C403.397329,107.562624 402.825345,108.385962 402.184714,109.300795 C405.296353,108.477445 408.339306,107.265309 411.313667,105.664352 C414.288027,104.063394 417.03355,102.165144 419.550316,99.9695445 C422.067083,97.7739452 424.309259,95.3039331 426.276913,92.559434 C428.244567,89.8149349 429.777483,86.8417722 430.875709,83.6398566 C426.025213,85.9269391 421.632378,88.9001019 417.69707,92.559434 C413.761762,96.2187661 409.872272,100.106748 406.028484,104.223497 Z M477.969845,79.1114557 C478.061364,80.117772 477.878329,81.0325913 477.420735,81.8559411 C476.963141,82.6792908 476.391158,83.4340167 475.704767,84.1201415 C475.018376,84.8062663 474.286237,85.4695103 473.508327,86.1098934 C472.730417,86.7502765 472.112675,87.482132 471.655081,88.3054817 C470.739893,89.8606978 469.939116,91.5073726 469.252725,93.2455553 C468.566334,94.9837381 467.948591,96.7218948 467.399479,98.4600775 C466.850366,100.381227 466.324141,102.233736 465.820788,104.01766 C465.317434,105.801585 464.836968,107.608353 464.379374,109.438019 C463.464186,112.639935 462.045666,115.658838 460.123772,118.494821 C458.201877,121.330803 455.776666,123.526369 452.848065,125.081586 C449.370351,126.819768 445.938449,127.551624 442.552254,127.277174 C440.721878,127.002724 439.211841,126.499573 438.022097,125.767707 C437.930578,125.767707 437.656026,125.630484 437.198432,125.356034 C436.740838,125.081584 436.260371,124.807138 435.757018,124.532689 C435.253665,124.258239 434.841836,123.960922 434.521521,123.640731 C434.201205,123.320539 434.086808,123.068964 434.178327,122.885997 C434.269846,122.703031 434.773191,122.771642 435.688379,123.091834 C436.603567,123.412025 437.152672,123.572119 437.335709,123.572119 C438.525453,123.938052 439.852456,124.121016 441.316756,124.121016 C443.970801,123.938049 446.304495,123.068971 448.317908,121.513755 C450.056765,120.232988 451.63544,118.540573 453.053981,116.436457 C454.472522,114.332341 455.319058,112.228256 455.593615,110.12414 C455.95969,108.020024 456.30288,105.847329 456.623196,103.605988 C456.943512,101.364647 457.240943,99.0547279 457.5155,96.676162 C455.22753,98.780278 452.39049,101.021585 449.004295,103.400151 C445.618101,105.778717 442.300594,107.951413 439.051678,109.918304 C435.802761,111.885195 432.988601,113.486129 430.609112,114.721153 C428.229624,115.956178 426.902621,116.436458 426.628065,116.162008 C426.445028,115.887558 427.657633,114.766905 430.265919,112.800014 C432.874204,110.833123 436.031554,108.408851 439.738065,105.527127 C443.444576,102.645403 447.242548,99.4664062 451.132097,95.9900407 C455.021645,92.5136752 458.156116,89.0831028 460.535604,85.6982206 C461.359273,84.4174543 462.18293,83.1595778 463.006599,81.9245532 C463.830268,80.6895286 464.745442,79.4316521 465.752149,78.1508858 C466.758855,77.1445695 467.879944,76.2754912 469.115447,75.5436247 C470.350951,74.8117583 471.700833,74.4458306 473.165133,74.4458306 C474.446396,74.4458306 475.544605,74.9032402 476.459793,75.8180733 C477.374981,76.7329063 477.878326,77.8306895 477.969845,79.1114557 Z"/>
    </g>
  </g>
</svg>
