<svg xmlns="http://www.w3.org/2000/svg" width="20" height="20" viewBox="0 0 20 20">
  <path fill="#390ABA" d="M5.46632124,14.507772 L5.46632124,12.6943005 L9.09326425,12.6943005 L9.09326425,14.507772 L5.46632124,14.507772 Z M10.9067358,14.507772 L14.5336788,14.507772 L14.5336788,12.6943005 L10.9067358,12.6943005 L10.9067358,14.507772 Z M19.9740933,7.25388601 L19.9740933,9.06735751 L19.9740933,12.6943005 L18.1606218,12.6943005 L18.1606218,9.06735751 L16.3471503,9.06735751 L16.3471503,12.6943005 L14.5336788,12.6943005 L14.5336788,10.880829 L5.46632124,10.880829 L5.46632124,12.6943005 L3.65284974,12.6943005 L3.65284974,9.06735751 L1.83937824,9.06735751 L1.83937824,12.6943005 L0.0259067358,12.6943005 L0.0259067358,9.06735751 L0.0259067358,7.25388601 L1.83937824,7.25388601 L1.83937824,5.44041451 L3.65284974,5.44041451 L3.65284974,3.62694301 L5.46632124,3.62694301 L5.46632124,1.8134715 L7.27979275,1.8134715 L7.27979275,3.62694301 L12.7202073,3.62694301 L12.7202073,1.8134715 L14.5336788,1.8134715 L14.5336788,3.62694301 L16.3471503,3.62694301 L16.3471503,5.44041451 L18.1606218,5.44041451 L18.1606218,7.25388601 L19.9740933,7.25388601 Z M7.27979275,5.44041451 L5.46632124,5.44041451 L5.46632124,7.25388601 L7.27979275,7.25388601 L7.27979275,5.44041451 Z M14.5336788,5.44041451 L12.7202073,5.44041451 L12.7202073,7.25388601 L14.5336788,7.25388601 L14.5336788,5.44041451 Z M16.3471503,0 L14.5336788,0 L14.5336788,1.8134715 L16.3471503,1.8134715 L16.3471503,0 Z M3.65284974,0 L3.65284974,1.8134715 L5.46632124,1.8134715 L5.46632124,0 L3.65284974,0 Z" transform="translate(0 3)"/>
</svg>
