<svg xmlns="http://www.w3.org/2000/svg" xmlns:xlink="http://www.w3.org/1999/xlink" width="184" height="185" viewBox="0 0 184 185">
  <defs>
    <path id="linkedin-b" d="M42.75,70.5 C27.4240982,70.5 15,58.0759018 15,42.75 C15,27.4240982 27.4240982,15 42.75,15 C58.0759018,15 70.5,27.4240982 70.5,42.75 C70.5,58.0759018 58.0759018,70.5 42.75,70.5 Z M58.1666667,58.1666667 L58.1666667,46.9390305 C58.1666667,40.9240654 54.9266274,38.125 50.6080823,38.125 C47.121592,38.125 45.5614894,40.0254063 44.6909973,41.3588281 L44.6909973,38.5844143 L38.125,38.5844143 C38.2109187,40.4220713 38.125,58.1644256 38.125,58.1644256 L44.6909973,58.1644256 L44.6909973,47.2281253 C44.6909973,46.6454536 44.7339566,46.0605408 44.9080551,45.6414654 C45.3828689,44.4716398 46.4613747,43.2614755 48.2747114,43.2614755 C50.6510417,43.2614755 51.6006694,45.0565526 51.6006694,47.6875396 L51.6006694,58.1644256 L58.1666667,58.1666667 Z M31.1650852,35.0416667 C33.5528517,35.0416667 35.0416667,33.6690267 35.0416667,31.957312 C34.9968371,30.2067876 33.5528517,28.875 31.2099148,28.875 C28.8669779,28.875 27.3333333,30.2067876 27.3333333,31.957312 C27.3333333,33.6710693 28.8197888,35.0416667 31.1202556,35.0416667 L31.1650852,35.0416667 Z M33.5,58.1666667 L33.5,38.125 L27.3333333,38.125 L27.3333333,58.1666667 L33.5,58.1666667 Z"/>
    <filter id="linkedin-a" width="620.7%" height="620.7%" x="-215.3%" y="-253.2%" filterUnits="objectBoundingBox">
      <feMorphology in="SourceAlpha" radius="3" result="shadowSpreadOuter1"/>
      <feOffset dx="25" dy="4" in="shadowSpreadOuter1" result="shadowOffsetOuter1"/>
      <feGaussianBlur in="shadowOffsetOuter1" result="shadowBlurOuter1" stdDeviation="47"/>
      <feComposite in="shadowBlurOuter1" in2="SourceAlpha" operator="out" result="shadowBlurOuter1"/>
      <feColorMatrix in="shadowBlurOuter1" values="0 0 0 0 0.125490196   0 0 0 0 0   0 0 0 0 0.321568627  0 0 0 0.5 0"/>
    </filter>
  </defs>
  <g fill="none" fill-rule="evenodd" transform="translate(18 60)">
    <use fill="#000" filter="url(#linkedin-a)" xlink:href="#linkedin-b"/>
    <use fill="#FFF" fill-opacity=".8" xlink:href="#linkedin-b"/>
    <path stroke="#FF00CB" stroke-linecap="round" stroke-linejoin="round" stroke-width="3" d="M16.3678292,17.3168342 C20.9617047,12.5461541 26.8954319,8.94772574 33.7810977,7.17630792 C53.565496,2.08401358 73.7309443,13.9977422 78.8235065,33.7809309 C83.9160688,53.5660414 72.0035911,73.7338495 52.2194673,78.8233986 C32.4352062,83.9158302 12.2683853,72.005945 7.17513671,52.2191874 C4.68678178,42.5460518 6.26314255,32.7790263 10.8362909,24.7279632" transform="rotate(-170 43 43)"/>
  </g>
</svg>
