<svg xmlns="http://www.w3.org/2000/svg" width="955" height="469" viewBox="0 0 955 469">
  <defs>
    <linearGradient id="lowres-logo-a" x1="50.006%" x2="50.006%" y1="-857.982%" y2="674.044%">
      <stop offset="0%" stop-color="#ECE956"/>
      <stop offset="100%" stop-color="#EF3F6B"/>
    </linearGradient>
    <linearGradient id="lowres-logo-b" x1="50.007%" x2="50.007%" y1="-1355.881%" y2="484.498%">
      <stop offset="0%" stop-color="#ECE956"/>
      <stop offset="100%" stop-color="#EF3F6B"/>
    </linearGradient>
    <linearGradient id="lowres-logo-c" x1="50%" x2="50%" y1="-1686.532%" y2="357.372%">
      <stop offset="0%" stop-color="#ECE956"/>
      <stop offset="100%" stop-color="#EF3F6B"/>
    </linearGradient>
    <linearGradient id="lowres-logo-d" x1="50.006%" x2="50.006%" y1="-1083.223%" y2="587.275%">
      <stop offset="0%" stop-color="#ECE956"/>
      <stop offset="100%" stop-color="#EF3F6B"/>
    </linearGradient>
    <linearGradient id="lowres-logo-e" x1="50%" x2="50%" y1="-1699.306%" y2="160.778%">
      <stop offset="0%" stop-color="#ECE956"/>
      <stop offset="100%" stop-color="#EF3F6B"/>
    </linearGradient>
    <linearGradient id="lowres-logo-f" x1="50%" x2="50%" y1="7.299%" y2="209.079%">
      <stop offset="0%" stop-color="#ECE956"/>
      <stop offset="100%" stop-color="#EF3F6B"/>
    </linearGradient>
    <linearGradient id="lowres-logo-g" x1="50.006%" x2="50.006%" y1="-667.225%" y2="747.53%">
      <stop offset="0%" stop-color="#ECE956"/>
      <stop offset="100%" stop-color="#EF3F6B"/>
    </linearGradient>
  </defs>
  <g fill="none" fill-rule="evenodd">
    <g transform="translate(246)">
      <path fill="url(#lowres-logo-a)" d="M4.18555046,274.497936 C6.14587156,284.776376 8.79495413,294.789908 12.0268349,304.538532 L449.920183,304.538532 C453.205046,294.789908 455.801147,284.776376 457.761468,274.497936 L4.18555046,274.497936 Z"/>
      <path fill="url(#lowres-logo-b)" d="M36.7162844,355.824771 C42.3853211,364.566743 48.5841743,372.937844 55.312844,380.83211 L406.634174,380.83211 C413.362844,372.937844 419.614679,364.566743 425.230734,355.824771 L36.7162844,355.824771 Z"/>
      <path fill="url(#lowres-logo-c)" d="M365.043578,419.031881 C374.580275,412.197248 383.587156,404.673853 392.011239,396.514679 L69.9887615,396.514679 C78.3598624,404.673853 87.3667431,412.197248 96.956422,419.031881 L365.043578,419.031881 Z"/>
      <path fill="url(#lowres-logo-d)" d="M15.8944954,315.187844 C19.603211,324.67156 23.9477064,333.890367 28.8220183,342.738303 L433.125,342.738303 C437.999312,333.890367 442.343807,324.724541 446.052523,315.187844 L15.8944954,315.187844 Z"/>
      <path fill="url(#lowres-logo-e)" d="M126.944037,437.204587 C158.203211,452.993119 193.541972,461.947018 231,461.947018 C268.458028,461.947018 303.796789,453.046101 335.055963,437.204587 L126.944037,437.204587 Z"/>
      <path fill="url(#lowres-logo-f)" d="M461.788073,228.086009 C460.304587,101.830734 357.467202,0 230.894037,0 C104.320872,0 1.53646789,101.883716 0,228.086009 L461.788073,228.086009 Z"/>
      <path fill="url(#lowres-logo-g)" d="M0.105963303,233.808028 C0.211926606,244.881193 1.16559633,255.742431 2.75504587,266.338761 L459.191972,266.338761 C460.834404,255.68945 461.735092,244.828211 461.841055,233.808028 L0.105963303,233.808028 Z"/>
    </g>
    <g transform="translate(0 5)">
      <path fill="#3A0ABA" d="M273.028,285.228 C273.212001,285.412001 273.120002,285.687998 272.752,286.056 C271.831995,286.792004 270.866005,287.435997 269.854,287.988 C268.841995,288.540003 267.876005,289.091997 266.956,289.644 C259.779964,292.772016 252.604036,295.945984 245.428,299.166 C238.251964,302.386016 231.076036,305.559984 223.9,308.688 C213.227947,313.104022 202.556053,317.381979 191.884,321.522 C181.211947,325.662021 170.448054,329.663981 159.592,333.528 C142.295914,339.968032 124.862088,346.039971 107.29,351.744 C89.7179121,357.448029 71.8240911,361.771985 53.608,364.716 C50.4799844,365.268003 46.8920202,365.727998 42.844,366.096 C38.7959798,366.464002 34.7940198,366.372003 30.838,365.82 C26.8819802,365.267997 23.3860152,364.02601 20.35,362.094 C17.3139848,360.16199 15.4280037,357.080021 14.692,352.848 C13.7719954,348.431978 14.507988,343.970023 16.9,339.462 C19.292012,334.953977 21.591989,330.860018 23.8,327.18 C30.4240331,316.691948 37.5999614,306.618048 45.328,296.958 C53.0560386,287.297952 60.8759604,277.776047 68.788,268.392 C84.6120791,249.439905 100.665919,230.902091 116.95,212.778 C133.234081,194.653909 149.839915,176.57609 166.768,158.544 C183.144082,140.879912 199.611917,123.584085 216.172,106.656 C222.980034,99.663965 229.787966,92.7180345 236.596,85.818 C243.404034,78.9179655 250.395964,72.2480322 257.572,65.808 C257.756001,65.6239991 258.445994,65.0260051 259.642,64.014 C260.838006,63.0019949 262.171993,61.9440055 263.644,60.84 C265.116007,59.7359945 266.449994,58.8620032 267.646,58.218 C268.842006,57.5739968 269.531999,57.5279972 269.716,58.08 C270.084002,58.8160037 269.946003,59.6899949 269.302,60.702 C268.657997,61.7140051 268.152002,62.4959972 267.784,63.048 C261.527969,73.1680506 254.628038,82.8739535 247.084,92.166 C239.539962,101.458046 231.996038,110.611955 224.452,119.628 C208.995923,138.580095 193.402079,157.163909 177.67,175.38 C161.937921,193.596091 146.06808,211.903908 130.06,230.304 C121.779959,239.872048 113.59204,249.347953 105.496,258.732 C97.3999595,268.116047 89.2120414,277.683951 80.932,287.436 C76.6999788,292.220024 72.6060198,297.049976 68.65,301.926 C64.6939802,306.802024 60.7840193,311.723975 56.92,316.692 C53.0559807,321.476024 49.2840184,326.351975 45.604,331.32 C41.9239816,336.288025 38.6120147,341.439973 35.668,346.776 C47.260058,346.776 58.6219443,345.534012 69.754,343.05 C80.8860557,340.565988 91.9719448,337.944014 103.012,335.184 C114.052055,332.423986 124.953946,329.434016 135.718,326.214 C146.482054,322.993984 157.383945,319.820016 168.424,316.692 C183.328075,312.275978 198.185926,307.584025 212.998,302.616 C227.810074,297.647975 242.667925,293.048021 257.572,288.816 C257.756001,288.816 258.675992,288.540003 260.332,287.988 C261.988008,287.435997 263.735991,286.884003 265.576,286.332 C267.416009,285.779997 269.071993,285.366001 270.544,285.09 C272.016007,284.813999 272.843999,284.859998 273.028,285.228 Z M386.756001,214.848 C389.148013,215.584004 391.079993,216.825991 392.552001,218.574 C394.024008,220.322009 394.668002,221.104001 394.484001,220.92 C393.931998,220.735999 393.150006,220.506001 392.138001,220.23 C391.125996,219.953999 389.70001,219.724001 387.860001,219.54 C384.363983,219.171998 380.868018,219.493995 377.372001,220.506 C373.875983,221.518005 370.380018,222.98999 366.884001,224.922 C363.387983,226.85401 359.846019,229.153987 356.258001,231.822 C352.669983,234.490013 349.036019,237.295985 345.356001,240.24 C343.699992,241.712007 340.664023,244.655978 336.248001,249.072 C331.831979,253.488022 327.370023,258.593971 322.862001,264.39 C318.353978,270.186029 314.398018,276.257968 310.994001,282.606 C307.589984,288.954032 305.888001,294.703974 305.888001,299.856 C311.224027,299.119996 317.479965,296.498023 324.656001,291.99 C331.832037,287.481977 338.823967,282.146031 345.632001,275.982 C352.440035,269.817969 358.603973,263.286034 364.124001,256.386 C369.644028,249.485965 373.415991,243.184029 375.440001,237.48 C376.176004,235.639991 376.636,233.846009 376.820001,232.098 C377.004002,230.349991 376.820004,228.46401 376.268001,226.44 C375.899999,225.335994 375.716001,224.692001 375.716001,224.508 C375.900002,223.771996 376.681994,224.185992 378.062001,225.75 C379.442008,227.314008 380.407998,229.199989 380.960001,231.408 C383.168012,239.688041 382.110022,248.243956 377.786001,257.076 C373.461979,265.908044 367.482039,274.095962 359.846001,281.64 C352.209963,289.184038 343.838046,295.715972 334.730001,301.236 C325.621955,306.756028 317.388038,310.435991 310.028001,312.276 C305.059976,313.748007 300.368023,313.748007 295.952001,312.276 C292.271982,310.803993 289.696008,308.228018 288.224001,304.548 C286.751993,300.867982 286.291998,297.188018 286.844001,293.508 C287.580004,288.723976 288.913991,284.170022 290.846001,279.846 C292.77801,275.521978 295.215986,271.244021 298.160001,267.012 C300.736014,263.331982 303.955981,259.284022 307.820001,254.868 C311.68402,250.451978 316.053976,246.082022 320.930001,241.758 C325.806025,237.433978 331.049973,233.29402 336.662001,229.338 C342.274029,225.38198 347.931972,222.116013 353.636001,219.54 C359.340029,216.963987 364.997973,215.170005 370.610001,214.158 C376.222029,213.145995 381.603975,213.375993 386.756001,214.848 Z M544.920002,203.532 C545.104002,203.716001 544.966004,204.175996 544.506002,204.912 C544.045999,205.648004 543.540004,206.429996 542.988002,207.258 C542.435999,208.086004 541.884004,208.867996 541.332002,209.604 C540.779999,210.340004 540.412002,210.799999 540.228002,210.984 C537.651989,214.296017 535.030015,217.515984 532.362002,220.644 C529.693988,223.772016 527.072014,226.899984 524.496002,230.028 C517.687967,238.12404 510.788036,246.081961 503.796002,253.902 C496.803967,261.722039 489.812036,269.58796 482.820002,277.5 C478.035978,283.020028 473.160026,288.493973 468.192002,293.922 C463.223977,299.350027 458.164027,304.915971 453.012002,310.62 C452.091997,311.540005 451.218006,312.275997 450.390002,312.828 C449.561997,313.380003 448.504008,313.839998 447.216002,314.208 C445.00799,314.576002 442.984011,314.024007 441.144002,312.552 C439.303992,311.079993 438.292002,309.148012 438.108002,306.756 C437.924001,305.467994 438.061999,304.318005 438.522002,303.306 C438.982004,302.293995 439.396,301.236006 439.764002,300.132 C442.892017,290.747953 446.663979,281.594045 451.080002,272.67 C455.496024,263.745955 460.187977,254.224051 465.156002,244.104 C464.051996,244.840004 463.316003,245.391998 462.948002,245.76 C456.507969,250.912026 450.712027,256.201973 445.560002,261.63 C440.407976,267.058027 435.486025,272.531972 430.794002,278.052 C426.101978,283.572028 421.456025,289.229971 416.856002,295.026 C412.255979,300.822029 407.380027,306.75597 402.228002,312.828 C400.755994,314.668009 398.870013,315.588 396.570002,315.588 C394.26999,315.588 392.29201,314.852007 390.636002,313.38 C388.611991,311.35599 387.875999,309.286011 388.428002,307.17 C388.980004,305.053989 389.807996,302.98401 390.912002,300.96 C393.488014,295.991975 396.339986,290.840027 399.468002,285.504 C402.412016,280.351974 405.355987,275.246025 408.300002,270.186 C411.244016,265.125975 414.279986,260.112025 417.408002,255.144 L426.240002,240.792 C429.184016,236.007976 432.495983,231.500021 436.176002,227.268 C436.544003,226.899998 437.049998,226.302004 437.694002,225.474 C438.338005,224.645996 439.027998,224.140001 439.764002,223.956 C440.132003,223.956 440.316002,224.323996 440.316002,225.06 C440.316002,225.796004 440.224002,226.255999 440.040002,226.44 C439.672,229.016013 439.028006,231.499988 438.108002,233.892 L435.348002,241.068 C433.323991,246.404027 431.208013,251.785973 429.000002,257.214 C426.79199,262.642027 424.400014,268.023973 421.824002,273.36 C427.344029,268.207974 433.415968,262.550031 440.040002,256.386 C446.664035,250.221969 453.14997,244.380028 459.498002,238.86 C465.846033,233.339972 471.595976,228.55602 476.748002,224.508 C481.900027,220.45998 485.67199,218.068004 488.064002,217.332 C490.640014,216.411995 492.020001,216.96399 492.204002,218.988 C492.388002,221.01201 491.882008,223.771983 490.686002,227.268 C489.489996,230.764017 487.788013,234.765977 485.580002,239.274 C483.37199,243.782023 481.164013,248.197978 478.956002,252.522 C476.74799,256.846022 474.81601,260.755983 473.160002,264.252 C471.503993,267.748017 470.492003,270.231993 470.124002,271.704 C478.036041,263.975961 485.947962,256.340038 493.860002,248.796 C501.772041,241.251962 509.86796,233.616039 518.148002,225.888 C521.276017,222.943985 524.449985,220.046014 527.670002,217.194 C530.890018,214.341986 534.063986,211.536014 537.192002,208.776 C537.376002,208.591999 537.835998,208.178003 538.572002,207.534 C539.308005,206.889997 540.135997,206.246003 541.056002,205.602 C541.976006,204.957997 542.803998,204.406002 543.540002,203.946 C544.276005,203.485998 544.736001,203.347999 544.920002,203.532 Z M652.024002,301.236 C652.024002,301.972004 651.104011,302.753996 649.264002,303.582 C647.423993,304.410004 645.262015,305.145997 642.778002,305.79 C640.29399,306.434003 637.902014,307.031997 635.602002,307.584 C633.301991,308.136003 631.876005,308.503999 631.324002,308.688 C625.987976,309.792006 620.652029,310.757996 615.316002,311.586 C609.979976,312.414004 604.644029,313.195996 599.308002,313.932 C594.89198,314.484003 589.694032,315.127996 583.714002,315.864 C577.733972,316.600004 571.662033,317.151998 565.498002,317.52 C559.333971,317.888002 553.400031,317.980001 547.696002,317.796 C541.991974,317.611999 537.208022,316.876006 533.344002,315.588 C532.055996,315.035997 531.504001,314.530002 531.688002,314.07 C531.872003,313.609998 532.377998,313.150002 533.206002,312.69 C534.034006,312.229998 534.999997,311.862001 536.104002,311.586 C537.208008,311.309999 537.944,311.080001 538.312002,310.896 C546.408043,308.87199 554.503962,307.308006 562.600002,306.204 C570.696043,305.099994 578.699963,304.088005 586.612002,303.168 C598.388061,301.879994 610.163943,300.776005 621.940002,299.856 C626.540025,299.487998 631.185979,299.166001 635.878002,298.89 C640.570026,298.613999 645.12398,298.935995 649.540002,299.856 C649.908004,300.040001 650.413999,300.223999 651.058002,300.408 C651.702006,300.592001 652.024002,300.867998 652.024002,301.236 Z M799.424003,255.42 C799.608004,255.788002 798.872011,256.707993 797.216003,258.18 C795.559995,259.652007 793.628014,261.35399 791.420003,263.286 C789.211992,265.21801 787.004014,267.057991 784.796003,268.806 C782.587992,270.554009 781.116007,271.795996 780.380003,272.532 C777.435988,274.740011 774.538017,276.993988 771.686003,279.294 C768.833989,281.594011 765.936018,283.847989 762.992003,286.056 C758.575981,289.736018 754.344023,293.415982 750.296003,297.096 C746.247983,300.776018 742.200023,304.63998 738.152003,308.688 L734.426003,312.414 C733.229997,313.610006 731.89601,314.667995 730.424003,315.588 C727.84799,317.060007 725.180017,317.198006 722.420003,316.002 C719.659989,314.805994 718.188004,312.644016 718.004003,309.516 C717.636001,306.571985 718.233995,303.628015 719.798003,300.684 C721.362011,297.739985 722.879996,295.164011 724.352003,292.956 C728.584024,285.963965 732.99998,279.202033 737.600003,272.67 C742.200026,266.137967 746.523983,259.376035 750.572003,252.384 C751.308007,251.279994 751.446005,249.900008 750.986003,248.244 C750.526001,246.587992 750.112005,245.024007 749.744003,243.552 C743.671973,249.072028 736.772042,254.729971 729.044003,260.526 C721.315964,266.322029 714.048037,271.519977 707.240003,276.12 C700.431969,280.720023 694.590027,284.307987 689.714003,286.884 C684.837979,289.460013 682.216005,290.472003 681.848003,289.92 C681.664002,289.551998 683.089988,288.172012 686.126003,285.78 C689.162018,283.387988 692.97998,280.352018 697.580003,276.672 L712.760003,264.528 C718.280031,260.111978 723.477979,255.696022 728.354003,251.28 C733.230027,246.863978 737.415986,242.724019 740.912003,238.86 C744.408021,234.995981 746.432,231.776013 746.984003,229.2 C746.800002,226.071984 746.846002,222.576019 747.122003,218.712 C747.398004,214.847981 748.82399,211.444015 751.400003,208.5 C753.608014,206.107988 756.275987,204.912 759.404003,204.912 C762.532019,204.912 764.831996,206.567983 766.304003,209.88 C767.77601,213.192017 767.868009,216.365985 766.580003,219.402 C765.291997,222.438015 763.91201,225.335986 762.440003,228.096 C762.072001,229.016005 761.704005,229.843996 761.336003,230.58 C760.968001,231.316004 760.784003,232.235994 760.784003,233.34 C761.152005,235.916013 761.841998,238.353988 762.854003,240.654 C763.866008,242.954011 765.015997,245.391987 766.304003,247.968 C767.77601,251.648018 768.190006,255.097984 767.546003,258.318 C766.902,261.538016 765.384015,264.711984 762.992003,267.84 C760.783992,270.968016 758.484015,274.141984 756.092003,277.362 C753.699991,280.582016 751.400014,283.755984 749.192003,286.884 C753.424024,284.123986 757.563983,281.272015 761.612003,278.328 C765.660023,275.383985 769.799982,272.532014 774.032003,269.772 C774.584006,269.403998 776.14799,268.346009 778.724003,266.598 C781.300016,264.849991 784.105988,263.102009 787.142003,261.354 C790.178018,259.605991 792.891991,258.042007 795.284003,256.662 C797.676015,255.281993 799.056001,254.867997 799.424003,255.42 Z M901.008004,251.004 C901.376006,251.372002 900.824011,252.383992 899.352004,254.04 C897.879996,255.696008 896.178013,257.53599 894.246004,259.56 C892.313994,261.58401 890.428013,263.469991 888.588004,265.218 C886.747995,266.966009 885.644006,268.023998 885.276004,268.392 C877.915967,274.832032 870.372042,281.133969 862.644004,287.298 C854.915965,293.462031 846.45205,299.119974 837.252004,304.272 C832.835982,306.848013 828.236028,309.193989 823.452004,311.31 C818.66798,313.426011 813.70003,314.575999 808.548004,314.76 C804.131982,314.76 800.222021,313.334014 796.818004,310.482 C793.413987,307.629986 791.988001,303.812024 792.540004,299.028 C793.644009,288.539948 797.047975,279.064042 802.752004,270.6 C808.456032,262.135958 814.803969,254.132038 821.796004,246.588 C825.292021,242.907982 828.971984,239.458016 832.836004,236.238 C836.700023,233.017984 840.747983,229.936015 844.980004,226.992 C849.028024,224.047985 853.259982,221.426012 857.676004,219.126 C862.092026,216.825988 866.69198,214.940007 871.476004,213.468 C873.684015,212.731996 876.075991,212.318 878.652004,212.226 C881.228017,212.134 883.619993,212.639994 885.828004,213.744 C890.244026,216.320013 892.268006,219.861977 891.900004,224.37 C891.532002,228.878023 889.784019,233.523976 886.656004,238.308 C885.183996,240.33201 883.712011,242.263991 882.240004,244.104 C880.767996,245.944009 879.204012,247.783991 877.548004,249.624 C870.923971,256.800036 863.472045,262.871975 855.192004,267.84 C849.303974,271.152017 843.416033,274.049988 837.528004,276.534 C831.639974,279.018012 824.924042,281.27199 817.380004,283.296 C813.331984,288.632027 810.388013,294.519968 808.548004,300.96 C813.88403,300.96 819.771972,299.718012 826.212004,297.234 C832.652036,294.749988 839.091972,291.622019 845.532004,287.85 C851.972036,284.077981 858.319973,280.122021 864.576004,275.982 C870.832035,271.841979 876.535978,268.116017 881.688004,264.804 C882.056006,264.619999 883.251994,263.792007 885.276004,262.32 C887.300014,260.847993 889.461992,259.238009 891.762004,257.49 C894.062015,255.741991 896.177994,254.224006 898.110004,252.936 L901.008004,251.004 Z M830.352004,265.908 C828.511995,267.93201 827.086009,269.679993 826.074004,271.152 C825.061999,272.624007 823.91201,274.279991 822.624004,276.12 C828.880035,274.463992 834.997974,272.026016 840.978004,268.806 C846.958034,265.585984 852.477979,261.768022 857.538004,257.352 C862.598029,252.935978 867.105984,247.968028 871.062004,242.448 C875.018024,236.927972 878.099993,230.948032 880.308004,224.508 C870.555955,229.108023 861.724043,235.087963 853.812004,242.448 C845.899964,249.808037 838.080042,257.627959 830.352004,265.908 Z M974.992005,215.4 C975.176005,217.42401 974.808009,219.263992 973.888005,220.92 C972.968,222.576008 971.818011,224.093993 970.438005,225.474 C969.057998,226.854007 967.586012,228.187994 966.022005,229.476 C964.457997,230.764006 963.216009,232.235992 962.296005,233.892 C960.455995,237.020016 958.846011,240.331983 957.466005,243.828 C956.085998,247.324017 954.84401,250.819983 953.740005,254.316 C952.635999,258.180019 951.57801,261.905982 950.566005,265.494 C949.554,269.082018 948.588009,272.715982 947.668005,276.396 C945.827995,282.836032 942.976024,288.907971 939.112005,294.612 C935.247985,300.316029 930.372034,304.731984 924.484005,307.86 C917.49197,311.356017 910.592039,312.828003 903.784005,312.276 C900.103986,311.723997 897.068017,310.712007 894.676005,309.24 C894.492004,309.24 893.940009,308.964003 893.020005,308.412 C892.1,307.859997 891.13401,307.308003 890.122005,306.756 C889.11,306.203997 888.282008,305.606003 887.638005,304.962 C886.994001,304.317997 886.764004,303.812002 886.948005,303.444 C887.132005,303.075998 888.143995,303.213997 889.984005,303.858 C891.824014,304.502003 892.928003,304.824 893.296005,304.824 C895.688017,305.560004 898.35599,305.928 901.300005,305.928 C906.636031,305.559998 911.327984,303.812016 915.376005,300.684 C918.872022,298.107987 922.04599,294.704021 924.898005,290.472 C927.750019,286.239979 929.452002,282.008021 930.004005,277.776 C930.740008,273.543979 931.430001,269.174023 932.074005,264.666 C932.718008,260.157977 933.316002,255.512024 933.868005,250.728 C929.267982,254.960021 923.564039,259.467976 916.756005,264.252 C909.947971,269.036024 903.278037,273.40598 896.746005,277.362 C890.213972,281.31802 884.556028,284.537988 879.772005,287.022 C874.987981,289.506012 872.320007,290.472003 871.768005,289.92 C871.400003,289.367997 873.837978,287.11402 879.082005,283.158 C884.326031,279.20198 890.673967,274.326029 898.126005,268.53 C905.578042,262.733971 913.213965,256.340035 921.034005,249.348 C928.854044,242.355965 935.155981,235.456034 939.940005,228.648 C941.596013,226.071987 943.251996,223.542012 944.908005,221.058 C946.564013,218.573988 948.403994,216.044013 950.428005,213.468 C952.452015,211.44399 954.705992,209.696007 957.190005,208.224 C959.674017,206.751993 962.38799,206.016 965.332005,206.016 C967.908017,206.016 970.115995,206.935991 971.956005,208.776 C973.796014,210.616009 974.808004,212.823987 974.992005,215.4 Z"/>
      <path fill="#EFFFFF" d="M263.028,279.228 C263.212001,279.412001 263.120002,279.687998 262.752,280.056 C261.831995,280.792004 260.866005,281.435997 259.854,281.988 C258.841995,282.540003 257.876005,283.091997 256.956,283.644 C249.779964,286.772016 242.604036,289.945984 235.428,293.166 C228.251964,296.386016 221.076036,299.559984 213.9,302.688 C203.227947,307.104022 192.556053,311.381979 181.884,315.522 C171.211947,319.662021 160.448054,323.663981 149.592,327.528 C132.295914,333.968032 114.862088,340.039971 97.29,345.744 C79.7179121,351.448029 61.8240911,355.771985 43.608,358.716 C40.4799844,359.268003 36.8920202,359.727998 32.844,360.096 C28.7959798,360.464002 24.7940198,360.372003 20.838,359.82 C16.8819802,359.267997 13.3860152,358.02601 10.35,356.094 C7.31398482,354.16199 5.42800368,351.080021 4.692,346.848 C3.7719954,342.431978 4.50798804,337.970023 6.9,333.462 C9.29201196,328.953977 11.591989,324.860018 13.8,321.18 C20.4240331,310.691948 27.5999614,300.618048 35.328,290.958 C43.0560386,281.297952 50.8759604,271.776047 58.788,262.392 C74.6120791,243.439905 90.6659186,224.902091 106.95,206.778 C123.234081,188.653909 139.839915,170.57609 156.768,152.544 C173.144082,134.879912 189.611917,117.584085 206.172,100.656 C212.980034,93.663965 219.787966,86.7180345 226.596,79.818 C233.404034,72.9179655 240.395964,66.2480322 247.572,59.808 C247.756001,59.6239991 248.445994,59.0260051 249.642,58.014 C250.838006,57.0019949 252.171993,55.9440055 253.644,54.84 C255.116007,53.7359945 256.449994,52.8620032 257.646,52.218 C258.842006,51.5739968 259.531999,51.5279972 259.716,52.08 C260.084002,52.8160037 259.946003,53.6899949 259.302,54.702 C258.657997,55.7140051 258.152002,56.4959972 257.784,57.048 C251.527969,67.1680506 244.628038,76.8739535 237.084,86.166 C229.539962,95.4580465 221.996038,104.611955 214.452,113.628 C198.995923,132.580095 183.402079,151.163909 167.67,169.38 C151.937921,187.596091 136.06808,205.903908 120.06,224.304 C111.779959,233.872048 103.59204,243.347953 95.496,252.732 C87.3999595,262.116047 79.2120414,271.683951 70.932,281.436 C66.6999788,286.220024 62.6060198,291.049976 58.65,295.926 C54.6939802,300.802024 50.7840193,305.723975 46.92,310.692 C43.0559807,315.476024 39.2840184,320.351975 35.604,325.32 C31.9239816,330.288025 28.6120147,335.439973 25.668,340.776 C37.260058,340.776 48.6219443,339.534012 59.754,337.05 C70.8860557,334.565988 81.9719448,331.944014 93.012,329.184 C104.052055,326.423986 114.953946,323.434016 125.718,320.214 C136.482054,316.993984 147.383945,313.820016 158.424,310.692 C173.328075,306.275978 188.185926,301.584025 202.998,296.616 C217.810074,291.647975 232.667925,287.048021 247.572,282.816 C247.756001,282.816 248.675992,282.540003 250.332,281.988 C251.988008,281.435997 253.735991,280.884003 255.576,280.332 C257.416009,279.779997 259.071993,279.366001 260.544,279.09 C262.016007,278.813999 262.843999,278.859998 263.028,279.228 Z M376.756001,208.848 C379.148013,209.584004 381.079993,210.825991 382.552001,212.574 C384.024008,214.322009 384.668002,215.104001 384.484001,214.92 C383.931998,214.735999 383.150006,214.506001 382.138001,214.23 C381.125996,213.953999 379.70001,213.724001 377.860001,213.54 C374.363983,213.171998 370.868018,213.493995 367.372001,214.506 C363.875983,215.518005 360.380018,216.98999 356.884001,218.922 C353.387983,220.85401 349.846019,223.153987 346.258001,225.822 C342.669983,228.490013 339.036019,231.295985 335.356001,234.24 C333.699992,235.712007 330.664023,238.655978 326.248001,243.072 C321.831979,247.488022 317.370023,252.593971 312.862001,258.39 C308.353978,264.186029 304.398018,270.257968 300.994001,276.606 C297.589984,282.954032 295.888001,288.703974 295.888001,293.856 C301.224027,293.119996 307.479965,290.498023 314.656001,285.99 C321.832037,281.481977 328.823967,276.146031 335.632001,269.982 C342.440035,263.817969 348.603973,257.286034 354.124001,250.386 C359.644028,243.485965 363.415991,237.184029 365.440001,231.48 C366.176004,229.639991 366.636,227.846009 366.820001,226.098 C367.004002,224.349991 366.820004,222.46401 366.268001,220.44 C365.899999,219.335994 365.716001,218.692001 365.716001,218.508 C365.900002,217.771996 366.681994,218.185992 368.062001,219.75 C369.442008,221.314008 370.407998,223.199989 370.960001,225.408 C373.168012,233.688041 372.110022,242.243956 367.786001,251.076 C363.461979,259.908044 357.482039,268.095962 349.846001,275.64 C342.209963,283.184038 333.838046,289.715972 324.730001,295.236 C315.621955,300.756028 307.388038,304.435991 300.028001,306.276 C295.059976,307.748007 290.368023,307.748007 285.952001,306.276 C282.271982,304.803993 279.696008,302.228018 278.224001,298.548 C276.751993,294.867982 276.291998,291.188018 276.844001,287.508 C277.580004,282.723976 278.913991,278.170022 280.846001,273.846 C282.77801,269.521978 285.215986,265.244021 288.160001,261.012 C290.736014,257.331982 293.955981,253.284022 297.820001,248.868 C301.68402,244.451978 306.053976,240.082022 310.930001,235.758 C315.806025,231.433978 321.049973,227.29402 326.662001,223.338 C332.274029,219.38198 337.931972,216.116013 343.636001,213.54 C349.340029,210.963987 354.997973,209.170005 360.610001,208.158 C366.222029,207.145995 371.603975,207.375993 376.756001,208.848 Z M534.920002,197.532 C535.104002,197.716001 534.966004,198.175996 534.506002,198.912 C534.045999,199.648004 533.540004,200.429996 532.988002,201.258 C532.435999,202.086004 531.884004,202.867996 531.332002,203.604 C530.779999,204.340004 530.412002,204.799999 530.228002,204.984 C527.651989,208.296017 525.030015,211.515984 522.362002,214.644 C519.693988,217.772016 517.072014,220.899984 514.496002,224.028 C507.687967,232.12404 500.788036,240.081961 493.796002,247.902 C486.803967,255.722039 479.812036,263.58796 472.820002,271.5 C468.035978,277.020028 463.160026,282.493973 458.192002,287.922 C453.223977,293.350027 448.164027,298.915971 443.012002,304.62 C442.091997,305.540005 441.218006,306.275997 440.390002,306.828 C439.561997,307.380003 438.504008,307.839998 437.216002,308.208 C435.00799,308.576002 432.984011,308.024007 431.144002,306.552 C429.303992,305.079993 428.292002,303.148012 428.108002,300.756 C427.924001,299.467994 428.061999,298.318005 428.522002,297.306 C428.982004,296.293995 429.396,295.236006 429.764002,294.132 C432.892017,284.747953 436.663979,275.594045 441.080002,266.67 C445.496024,257.745955 450.187977,248.224051 455.156002,238.104 C454.051996,238.840004 453.316003,239.391998 452.948002,239.76 C446.507969,244.912026 440.712027,250.201973 435.560002,255.63 C430.407976,261.058027 425.486025,266.531972 420.794002,272.052 C416.101978,277.572028 411.456025,283.229971 406.856002,289.026 C402.255979,294.822029 397.380027,300.75597 392.228002,306.828 C390.755994,308.668009 388.870013,309.588 386.570002,309.588 C384.26999,309.588 382.29201,308.852007 380.636002,307.38 C378.611991,305.35599 377.875999,303.286011 378.428002,301.17 C378.980004,299.053989 379.807996,296.98401 380.912002,294.96 C383.488014,289.991975 386.339986,284.840027 389.468002,279.504 C392.412016,274.351974 395.355987,269.246025 398.300002,264.186 C401.244016,259.125975 404.279986,254.112025 407.408002,249.144 L416.240002,234.792 C419.184016,230.007976 422.495983,225.500021 426.176002,221.268 C426.544003,220.899998 427.049998,220.302004 427.694002,219.474 C428.338005,218.645996 429.027998,218.140001 429.764002,217.956 C430.132003,217.956 430.316002,218.323996 430.316002,219.06 C430.316002,219.796004 430.224002,220.255999 430.040002,220.44 C429.672,223.016013 429.028006,225.499988 428.108002,227.892 L425.348002,235.068 C423.323991,240.404027 421.208013,245.785973 419.000002,251.214 C416.79199,256.642027 414.400014,262.023973 411.824002,267.36 C417.344029,262.207974 423.415968,256.550031 430.040002,250.386 C436.664035,244.221969 443.14997,238.380028 449.498002,232.86 C455.846033,227.339972 461.595976,222.55602 466.748002,218.508 C471.900027,214.45998 475.67199,212.068004 478.064002,211.332 C480.640014,210.411995 482.020001,210.96399 482.204002,212.988 C482.388002,215.01201 481.882008,217.771983 480.686002,221.268 C479.489996,224.764017 477.788013,228.765977 475.580002,233.274 C473.37199,237.782023 471.164013,242.197978 468.956002,246.522 C466.74799,250.846022 464.81601,254.755983 463.160002,258.252 C461.503993,261.748017 460.492003,264.231993 460.124002,265.704 C468.036041,257.975961 475.947962,250.340038 483.860002,242.796 C491.772041,235.251962 499.86796,227.616039 508.148002,219.888 C511.276017,216.943985 514.449985,214.046014 517.670002,211.194 C520.890018,208.341986 524.063986,205.536014 527.192002,202.776 C527.376002,202.591999 527.835998,202.178003 528.572002,201.534 C529.308005,200.889997 530.135997,200.246003 531.056002,199.602 C531.976006,198.957997 532.803998,198.406002 533.540002,197.946 C534.276005,197.485998 534.736001,197.347999 534.920002,197.532 Z M642.024002,295.236 C642.024002,295.972004 641.104011,296.753996 639.264002,297.582 C637.423993,298.410004 635.262015,299.145997 632.778002,299.79 C630.29399,300.434003 627.902014,301.031997 625.602002,301.584 C623.301991,302.136003 621.876005,302.503999 621.324002,302.688 C615.987976,303.792006 610.652029,304.757996 605.316002,305.586 C599.979976,306.414004 594.644029,307.195996 589.308002,307.932 C584.89198,308.484003 579.694032,309.127996 573.714002,309.864 C567.733972,310.600004 561.662033,311.151998 555.498002,311.52 C549.333971,311.888002 543.400031,311.980001 537.696002,311.796 C531.991974,311.611999 527.208022,310.876006 523.344002,309.588 C522.055996,309.035997 521.504001,308.530002 521.688002,308.07 C521.872003,307.609998 522.377998,307.150002 523.206002,306.69 C524.034006,306.229998 524.999997,305.862001 526.104002,305.586 C527.208008,305.309999 527.944,305.080001 528.312002,304.896 C536.408043,302.87199 544.503962,301.308006 552.600002,300.204 C560.696043,299.099994 568.699963,298.088005 576.612002,297.168 C588.388061,295.879994 600.163943,294.776005 611.940002,293.856 C616.540025,293.487998 621.185979,293.166001 625.878002,292.89 C630.570026,292.613999 635.12398,292.935995 639.540002,293.856 C639.908004,294.040001 640.413999,294.223999 641.058002,294.408 C641.702006,294.592001 642.024002,294.867998 642.024002,295.236 Z M789.424003,249.42 C789.608004,249.788002 788.872011,250.707993 787.216003,252.18 C785.559995,253.652007 783.628014,255.35399 781.420003,257.286 C779.211992,259.21801 777.004014,261.057991 774.796003,262.806 C772.587992,264.554009 771.116007,265.795996 770.380003,266.532 C767.435988,268.740011 764.538017,270.993988 761.686003,273.294 C758.833989,275.594011 755.936018,277.847989 752.992003,280.056 C748.575981,283.736018 744.344023,287.415982 740.296003,291.096 C736.247983,294.776018 732.200023,298.63998 728.152003,302.688 L724.426003,306.414 C723.229997,307.610006 721.89601,308.667995 720.424003,309.588 C717.84799,311.060007 715.180017,311.198006 712.420003,310.002 C709.659989,308.805994 708.188004,306.644016 708.004003,303.516 C707.636001,300.571985 708.233995,297.628015 709.798003,294.684 C711.362011,291.739985 712.879996,289.164011 714.352003,286.956 C718.584024,279.963965 722.99998,273.202033 727.600003,266.67 C732.200026,260.137967 736.523983,253.376035 740.572003,246.384 C741.308007,245.279994 741.446005,243.900008 740.986003,242.244 C740.526001,240.587992 740.112005,239.024007 739.744003,237.552 C733.671973,243.072028 726.772042,248.729971 719.044003,254.526 C711.315964,260.322029 704.048037,265.519977 697.240003,270.12 C690.431969,274.720023 684.590027,278.307987 679.714003,280.884 C674.837979,283.460013 672.216005,284.472003 671.848003,283.92 C671.664002,283.551998 673.089988,282.172012 676.126003,279.78 C679.162018,277.387988 682.97998,274.352018 687.580003,270.672 L702.760003,258.528 C708.280031,254.111978 713.477979,249.696022 718.354003,245.28 C723.230027,240.863978 727.415986,236.724019 730.912003,232.86 C734.408021,228.995981 736.432,225.776013 736.984003,223.2 C736.800002,220.071984 736.846002,216.576019 737.122003,212.712 C737.398004,208.847981 738.82399,205.444015 741.400003,202.5 C743.608014,200.107988 746.275987,198.912 749.404003,198.912 C752.532019,198.912 754.831996,200.567983 756.304003,203.88 C757.77601,207.192017 757.868009,210.365985 756.580003,213.402 C755.291997,216.438015 753.91201,219.335986 752.440003,222.096 C752.072001,223.016005 751.704005,223.843996 751.336003,224.58 C750.968001,225.316004 750.784003,226.235994 750.784003,227.34 C751.152005,229.916013 751.841998,232.353988 752.854003,234.654 C753.866008,236.954011 755.015997,239.391987 756.304003,241.968 C757.77601,245.648018 758.190006,249.097984 757.546003,252.318 C756.902,255.538016 755.384015,258.711984 752.992003,261.84 C750.783992,264.968016 748.484015,268.141984 746.092003,271.362 C743.699991,274.582016 741.400014,277.755984 739.192003,280.884 C743.424024,278.123986 747.563983,275.272015 751.612003,272.328 C755.660023,269.383985 759.799982,266.532014 764.032003,263.772 C764.584006,263.403998 766.14799,262.346009 768.724003,260.598 C771.300016,258.849991 774.105988,257.102009 777.142003,255.354 C780.178018,253.605991 782.891991,252.042007 785.284003,250.662 C787.676015,249.281993 789.056001,248.867997 789.424003,249.42 Z M891.008004,245.004 C891.376006,245.372002 890.824011,246.383992 889.352004,248.04 C887.879996,249.696008 886.178013,251.53599 884.246004,253.56 C882.313994,255.58401 880.428013,257.469991 878.588004,259.218 C876.747995,260.966009 875.644006,262.023998 875.276004,262.392 C867.915967,268.832032 860.372042,275.133969 852.644004,281.298 C844.915965,287.462031 836.45205,293.119974 827.252004,298.272 C822.835982,300.848013 818.236028,303.193989 813.452004,305.31 C808.66798,307.426011 803.70003,308.575999 798.548004,308.76 C794.131982,308.76 790.222021,307.334014 786.818004,304.482 C783.413987,301.629986 781.988001,297.812024 782.540004,293.028 C783.644009,282.539948 787.047975,273.064042 792.752004,264.6 C798.456032,256.135958 804.803969,248.132038 811.796004,240.588 C815.292021,236.907982 818.971984,233.458016 822.836004,230.238 C826.700023,227.017984 830.747983,223.936015 834.980004,220.992 C839.028024,218.047985 843.259982,215.426012 847.676004,213.126 C852.092026,210.825988 856.69198,208.940007 861.476004,207.468 C863.684015,206.731996 866.075991,206.318 868.652004,206.226 C871.228017,206.134 873.619993,206.639994 875.828004,207.744 C880.244026,210.320013 882.268006,213.861977 881.900004,218.37 C881.532002,222.878023 879.784019,227.523976 876.656004,232.308 C875.183996,234.33201 873.712011,236.263991 872.240004,238.104 C870.767996,239.944009 869.204012,241.783991 867.548004,243.624 C860.923971,250.800036 853.472045,256.871975 845.192004,261.84 C839.303974,265.152017 833.416033,268.049988 827.528004,270.534 C821.639974,273.018012 814.924042,275.27199 807.380004,277.296 C803.331984,282.632027 800.388013,288.519968 798.548004,294.96 C803.88403,294.96 809.771972,293.718012 816.212004,291.234 C822.652036,288.749988 829.091972,285.622019 835.532004,281.85 C841.972036,278.077981 848.319973,274.122021 854.576004,269.982 C860.832035,265.841979 866.535978,262.116017 871.688004,258.804 C872.056006,258.619999 873.251994,257.792007 875.276004,256.32 C877.300014,254.847993 879.461992,253.238009 881.762004,251.49 C884.062015,249.741991 886.177994,248.224006 888.110004,246.936 L891.008004,245.004 Z M820.352004,259.908 C818.511995,261.93201 817.086009,263.679993 816.074004,265.152 C815.061999,266.624007 813.91201,268.279991 812.624004,270.12 C818.880035,268.463992 824.997974,266.026016 830.978004,262.806 C836.958034,259.585984 842.477979,255.768022 847.538004,251.352 C852.598029,246.935978 857.105984,241.968028 861.062004,236.448 C865.018024,230.927972 868.099993,224.948032 870.308004,218.508 C860.555955,223.108023 851.724043,229.087963 843.812004,236.448 C835.899964,243.808037 828.080042,251.627959 820.352004,259.908 Z M964.992005,209.4 C965.176005,211.42401 964.808009,213.263992 963.888005,214.92 C962.968,216.576008 961.818011,218.093993 960.438005,219.474 C959.057998,220.854007 957.586012,222.187994 956.022005,223.476 C954.457997,224.764006 953.216009,226.235992 952.296005,227.892 C950.455995,231.020016 948.846011,234.331983 947.466005,237.828 C946.085998,241.324017 944.84401,244.819983 943.740005,248.316 C942.635999,252.180019 941.57801,255.905982 940.566005,259.494 C939.554,263.082018 938.588009,266.715982 937.668005,270.396 C935.827995,276.836032 932.976024,282.907971 929.112005,288.612 C925.247985,294.316029 920.372034,298.731984 914.484005,301.86 C907.49197,305.356017 900.592039,306.828003 893.784005,306.276 C890.103986,305.723997 887.068017,304.712007 884.676005,303.24 C884.492004,303.24 883.940009,302.964003 883.020005,302.412 C882.1,301.859997 881.13401,301.308003 880.122005,300.756 C879.11,300.203997 878.282008,299.606003 877.638005,298.962 C876.994001,298.317997 876.764004,297.812002 876.948005,297.444 C877.132005,297.075998 878.143995,297.213997 879.984005,297.858 C881.824014,298.502003 882.928003,298.824 883.296005,298.824 C885.688017,299.560004 888.35599,299.928 891.300005,299.928 C896.636031,299.559998 901.327984,297.812016 905.376005,294.684 C908.872022,292.107987 912.04599,288.704021 914.898005,284.472 C917.750019,280.239979 919.452002,276.008021 920.004005,271.776 C920.740008,267.543979 921.430001,263.174023 922.074005,258.666 C922.718008,254.157977 923.316002,249.512024 923.868005,244.728 C919.267982,248.960021 913.564039,253.467976 906.756005,258.252 C899.947971,263.036024 893.278037,267.40598 886.746005,271.362 C880.213972,275.31802 874.556028,278.537988 869.772005,281.022 C864.987981,283.506012 862.320007,284.472003 861.768005,283.92 C861.400003,283.367997 863.837978,281.11402 869.082005,277.158 C874.326031,273.20198 880.673967,268.326029 888.126005,262.53 C895.578042,256.733971 903.213965,250.340035 911.034005,243.348 C918.854044,236.355965 925.155981,229.456034 929.940005,222.648 C931.596013,220.071987 933.251996,217.542012 934.908005,215.058 C936.564013,212.573988 938.403994,210.044013 940.428005,207.468 C942.452015,205.44399 944.705992,203.696007 947.190005,202.224 C949.674017,200.751993 952.38799,200.016 955.332005,200.016 C957.908017,200.016 960.115995,200.935991 961.956005,202.776 C963.796014,204.616009 964.808004,206.823987 964.992005,209.4 Z"/>
    </g>
  </g>
</svg>
