<svg xmlns="http://www.w3.org/2000/svg" xmlns:xlink="http://www.w3.org/1999/xlink" width="78" height="78" viewBox="0 0 78 78">
  <defs>
    <path id="phone-b" d="M36.75,64.5 C21.4240982,64.5 9,52.0759018 9,36.75 C9,21.4240982 21.4240982,9 36.75,9 C52.0759018,9 64.5,21.4240982 64.5,36.75 C64.5,52.0759018 52.0759018,64.5 36.75,64.5 Z M36.7123046,36.957659 C35.908569,36.1763453 35.0164646,35.078522 34.629325,34.1090732 C34.5704125,33.9829121 34.4504833,33.6708292 34.629325,33.4207203 C34.9870084,32.9205024 35.0459209,32.8873021 35.4330606,32.4180712 C35.7002711,32.0727881 35.908569,31.7607053 35.8202002,31.477396 L34.4820436,27.8142962 C34.3621145,27.5641872 34.0065351,27.5332003 33.5899392,27.5 C33.2322559,27.5 32.8472202,27.5 32.5779057,27.5619739 C31.9824681,27.7810959 30.7621366,29.4720979 30.6148552,30.6938689 C30.2866282,33.3543197 32.5779057,36.8934718 34.8691833,39.086905 C37.1604608,41.3113251 40.7015261,43.4095841 43.2011016,42.8141921 C44.3604165,42.5330962 45.8500625,41.1231901 45.9678877,40.4658241 C46.0268002,40.1847283 45.9973439,39.7774712 45.9384314,39.4012012 C45.9089751,38.9629572 45.8185022,38.6508744 45.580748,38.5247132 L42.5467515,37.0528332 C42.2774369,36.8956851 42.0102264,37.0218463 41.7430159,37.3671294 C41.4168928,37.8363603 41.2654034,38.0244954 40.8803678,38.5247132 C40.6720698,38.8058091 40.5226844,38.9939441 40.2849302,39.0249311 C40.0156157,39.086905 39.6600363,38.9319702 39.6011238,38.9319702 C38.6458988,38.5866871 37.5454964,37.7411861 36.7123046,36.957659 Z M25.8104476,49.0833333 L27.6046398,44.2669114 C25.6244643,41.8424914 24.4166667,38.6631898 24.4166667,35.1921242 C24.4166667,27.5252142 30.295928,21.3333333 37.5361496,21.3333333 C44.7763713,21.3333333 50.625,27.5252142 50.625,35.1921242 C50.625,42.8590343 44.7763713,49.0833333 37.5361496,49.0833333 C34.6282455,49.0833333 31.9654018,48.0992087 29.8014311,46.3972519 L25.8104476,49.0833333 Z M23.7783203,44.7649296 L21.3333333,55.25 L30.075621,50.9883412 C32.3065905,52.2344131 34.8445346,52.9547261 37.5359659,52.9547261 C46.4620059,52.9547261 53.7083333,45.1864632 53.7083333,35.5861502 C53.7083333,26.0182629 46.4620059,18.25 37.5359659,18.25 C28.577499,18.25 21.3333333,26.0159468 21.3333333,35.5838341 C21.3333333,38.9630516 22.2499332,42.1106573 23.7783203,44.7649296 Z"/>
    <filter id="phone-a" width="593.9%" height="574.8%" x="-215.3%" y="-229%" filterUnits="objectBoundingBox">
      <feMorphology in="SourceAlpha" radius="3" result="shadowSpreadOuter1"/>
      <feOffset dx="25" dy="4" in="shadowSpreadOuter1" result="shadowOffsetOuter1"/>
      <feGaussianBlur in="shadowOffsetOuter1" result="shadowBlurOuter1" stdDeviation="47"/>
      <feComposite in="shadowBlurOuter1" in2="SourceAlpha" operator="out" result="shadowBlurOuter1"/>
      <feColorMatrix in="shadowBlurOuter1" values="0 0 0 0 0.125490196   0 0 0 0 0   0 0 0 0 0.321568627  0 0 0 0.5 0"/>
    </filter>
  </defs>
  <g fill="none" fill-rule="evenodd" transform="translate(2 2)">
    <path stroke="#FF00CB" stroke-linecap="round" stroke-linejoin="round" stroke-width="3" d="M10.3678292,11.3168342 C14.9617047,6.54615412 20.8954319,2.94772574 27.7810977,1.17630792 C47.565496,-3.91598642 67.7309443,7.99774215 72.8235065,27.7809309 C77.9160688,47.5660414 66.0035911,67.7338495 46.2194673,72.8233986 C26.4352062,77.9158302 6.26838527,66.005945 1.17513671,46.2191874 C-1.31321822,36.5460518 0.263142547,26.7790263 4.83629088,18.7279632" transform="rotate(-90 37 37)"/>
    <use fill="#000" filter="url(#phone-a)" xlink:href="#phone-b"/>
    <use fill="#FFF" fill-opacity=".8" xlink:href="#phone-b"/>
  </g>
</svg>
