<svg xmlns="http://www.w3.org/2000/svg" xmlns:xlink="http://www.w3.org/1999/xlink" width="78" height="78" viewBox="0 0 78 78">
  <defs>
    <path id="twitter-b" d="M47.75,75.5 C32.4240982,75.5 20,63.0759018 20,47.75 C20,32.4240982 32.4240982,20 47.75,20 C63.0759018,20 75.5,32.4240982 75.5,47.75 C75.5,63.0759018 63.0759018,75.5 47.75,75.5 Z M52.4238724,34.1941049 C49.082063,35.2714588 46.972269,38.0490478 47.2118999,41.0873242 L47.2926451,42.2592638 L45.9564423,42.1162318 C41.0908929,41.5648665 36.8400488,39.6985297 33.2325616,36.5633607 L31.4691907,35.0084645 L31.0159757,36.1573344 C30.0548473,38.7180685 30.6695527,41.4241415 32.6725546,43.244339 C33.740475,44.2501768 33.5008441,44.3932088 31.6567279,43.7957042 C31.0159757,43.6042259 30.4533639,43.4611939 30.4012703,43.5327099 C30.213733,43.7011185 30.8544853,45.878896 31.3623986,46.7417019 C32.0578492,47.9390181 33.4747972,49.1109576 35.0245841,49.8053549 L36.3347401,50.3567202 L34.7849532,50.3797898 C33.28726,50.3797898 33.2351663,50.4028595 33.3966567,50.9080854 C33.9306169,52.4629816 36.0430155,54.1170774 38.3950451,54.8345443 L40.051624,55.3351563 L38.6086291,56.1010696 C36.4701837,57.2038001 33.9566637,57.8243744 31.4431438,57.8728207 C30.2397799,57.8958904 29.25,57.992783 29.25,58.064299 C29.25,58.3019167 32.5110642,59.6422649 34.4098787,60.1705605 C40.1037177,61.7254567 46.8680817,61.0564361 51.9472152,58.3988093 C55.557307,56.5070959 59.1647942,52.7490456 60.8500247,49.1086507 C61.7590593,47.1707979 62.668094,43.6272956 62.668094,41.9293674 C62.668094,40.8266369 62.7488392,40.6836049 64.2439277,39.3686333 C65.1269156,38.6027201 65.955205,37.7652908 66.1166954,37.5253662 C66.3849779,37.0708936 66.3563263,37.0708936 64.9940767,37.4769199 C62.7227924,38.1966938 62.3998116,38.0998011 63.525035,37.0224472 C64.3533245,36.256534 65.3431043,34.8677395 65.3431043,34.4617132 C65.3431043,34.3901972 64.941983,34.5101595 64.4861633,34.7247075 C64.0042968,34.9646321 62.9363764,35.3245191 62.1341338,35.5390671 L60.6911389,35.9474003 L59.380983,35.1561104 C58.6594855,34.7247075 57.6436588,34.2471652 57.1096986,34.1041332 C55.7396349,33.762702 53.6558878,33.8111483 52.4238724,34.1941049 Z"/>
    <filter id="twitter-a" width="620.6%" height="620.7%" x="-215.2%" y="-253.2%" filterUnits="objectBoundingBox">
      <feMorphology in="SourceAlpha" radius="3" result="shadowSpreadOuter1"/>
      <feOffset dx="25" dy="4" in="shadowSpreadOuter1" result="shadowOffsetOuter1"/>
      <feGaussianBlur in="shadowOffsetOuter1" result="shadowBlurOuter1" stdDeviation="47"/>
      <feComposite in="shadowBlurOuter1" in2="SourceAlpha" operator="out" result="shadowBlurOuter1"/>
      <feColorMatrix in="shadowBlurOuter1" values="0 0 0 0 0.125490196   0 0 0 0 0   0 0 0 0 0.321568627  0 0 0 0.5 0"/>
    </filter>
  </defs>
  <g fill="none" fill-rule="evenodd" transform="translate(-9 -9)">
    <use fill="#000" filter="url(#twitter-a)" xlink:href="#twitter-b"/>
    <use fill="#FFF" fill-opacity=".8" xlink:href="#twitter-b"/>
    <path stroke="#FF00CB" stroke-linecap="round" stroke-linejoin="round" stroke-width="3" d="M21.3678292,22.3168342 C25.9617047,17.5461541 31.8954319,13.9477257 38.7810977,12.1763079 C58.565496,7.08401358 78.7309443,18.9977422 83.8235065,38.7809309 C88.9160688,58.5660414 77.0035911,78.7338495 57.2194673,83.8233986 C37.4352062,88.9158302 17.2683853,77.005945 12.1751367,57.2191874 C9.68678178,47.5460518 11.2631425,37.7790263 15.8362909,29.7279632" transform="rotate(111 48 48)"/>
  </g>
</svg>
